<?xml version="1.0" encoding="UTF-8" standalone="no"?>
<!-- Creator: CorelDRAW -->

<svg
   xmlns:dc="http://purl.org/dc/elements/1.1/"
   xmlns:cc="http://creativecommons.org/ns#"
   xmlns:rdf="http://www.w3.org/1999/02/22-rdf-syntax-ns#"
   xmlns:svg="http://www.w3.org/2000/svg"
   xmlns="http://www.w3.org/2000/svg"
   xmlns:sodipodi="http://sodipodi.sourceforge.net/DTD/sodipodi-0.dtd"
   xmlns:inkscape="http://www.inkscape.org/namespaces/inkscape"
   xml:space="preserve"
   width="11in"
   height="8.5in"
   style="shape-rendering:geometricPrecision; text-rendering:geometricPrecision; image-rendering:optimizeQuality; fill-rule:evenodd; clip-rule:evenodd"
   viewBox="0 0 11 8.5"
   id="svg2047"
   sodipodi:version="0.32"
   inkscape:version="0.92.2 2405546, 2018-03-11"
   sodipodi:docname="behroze-gnu-button1-nas_mod.svg"
   version="1.1"><metadata
   id="metadata2080"><rdf:RDF><cc:Work
       rdf:about=""><dc:format>image/svg+xml</dc:format><dc:type
         rdf:resource="http://purl.org/dc/dcmitype/StillImage" /><cc:license
         rdf:resource="http://creativecommons.org/licenses/GPL/2.0/" /><dc:title></dc:title></cc:Work><cc:License
       rdf:about="http://creativecommons.org/licenses/GPL/2.0/"><cc:permits
         rdf:resource="http://web.resource.org/cc/Reproduction" /><cc:permits
         rdf:resource="http://web.resource.org/cc/Distribution" /><cc:requires
         rdf:resource="http://web.resource.org/cc/Notice" /><cc:permits
         rdf:resource="http://web.resource.org/cc/DerivativeWorks" /><cc:requires
         rdf:resource="http://web.resource.org/cc/ShareAlike" /><cc:requires
         rdf:resource="http://web.resource.org/cc/SourceCode" /></cc:License></rdf:RDF></metadata><sodipodi:namedview
   inkscape:window-height="731"
   inkscape:window-width="1366"
   inkscape:pageshadow="2"
   inkscape:pageopacity="0.0"
   guidetolerance="10.0"
   gridtolerance="10.0"
   objecttolerance="10.0"
   borderopacity="1.0"
   bordercolor="#666666"
   pagecolor="#ffffff"
   id="base"
   inkscape:zoom="0.53202614"
   inkscape:cx="704.88103"
   inkscape:cy="437.08838"
   inkscape:window-x="0"
   inkscape:window-y="0"
   inkscape:current-layer="Layer_x0020_1"
   showgrid="false"
   inkscape:window-maximized="1" />
 <defs
   id="defs2049">
  <style
   type="text/css"
   id="style2051">
   
    .fil4 {fill:black}
    .fil3 {fill:#666666}
    .fil2 {fill:#002940}
    .fil0 {fill:#5C788F}
    .fil6 {fill:#D4D6D9}
    .fil7 {fill:#ED6E00}
    .fil1 {fill:white}
    .fil5 {fill:#002940;fill-rule:nonzero}
    .fil8 {fill:#052638;fill-rule:nonzero}
   
  </style>
 </defs>
 <g
   id="Layer_x0020_1"
   inkscape:export-xdpi="142.99977"
   inkscape:export-ydpi="142.99977">
  <metadata
   id="CorelCorpID_0Corel-Layer" />
  
  <path
   class="fil1"
   d="M2.34235 4.99398c0.0372874,-0.030685 0.0772795,-0.0681417 0.100787,-0.116669 0.016748,-0.0345787 0.0224921,-0.0694921 0.00803937,-0.101811 0.044315,0.0699685 -0.0241772,0.154854 -0.0397835,0.222768 -0.0155866,0.093252 0.0317087,0.138996 0.0736732,0.190835 -0.0234843,-0.0442283 -0.0217165,-0.133563 0.0258268,-0.195232 0.125213,-0.00525197 0.204882,-0.0653228 0.248055,-0.214709 0.00683465,-0.0236614 0.0300354,-0.138008 0.0735669,-0.100409 0.0363425,0.0313819 -0.0442283,0.161193 -0.106461,0.223713 0.0645433,-0.0182008 0.12548,-0.0319764 0.170693,-0.0856142 -0.102154,0.132043 -0.100917,0.276638 -0.0112126,0.399787 -0.0312362,-0.19039 0.0828386,-0.342118 0.278835,-0.337693 -0.0404409,-0.107665 0.0938504,-0.209429 0.101201,-0.12702 0.00499606,0.117752 0.0512992,0.210228 0.0801378,0.250591 -0.0413543,-0.262819 0.0443543,-0.634354 0.291319,-0.772354 -0.0551102,-0.133969 -0.0335433,-0.21635 0.0330787,-0.344161 -0.116126,-0.0217795 -0.220382,-0.0481063 -0.329291,-0.0852126 -0.0610945,-0.020815 -0.125992,-0.0543661 -0.189587,-0.0696732 -0.0478268,-0.0101575 -0.0946024,-0.0159488 -0.143539,-0.0162953 0.0531024,-0.0487874 0.068626,-0.127689 0.0689882,-0.196783 -0.00280709,-0.151787 0.00381496,-0.146209 0.173496,-0.190799 -0.115657,-0.0131732 -0.197315,-0.0299094 -0.265248,0.077063 -0.036252,0.0639173 -0.0274213,0.135307 -0.0578976,0.199748 -0.0657992,-0.00984646 -0.117732,-0.0702402 -0.182394,-0.0906063 -0.0950433,-0.0299055 -0.18489,0.028122 -0.248205,0.0923583 -0.0260866,0.0264685 -0.0492323,0.0566299 -0.0865315,0.0328307 -0.133992,-0.0855 -0.0447756,-0.249024 0.0627874,-0.314362l0.104587 -0.0561496c-0.0527087,0.00585827 -0.105728,0.00658661 -0.155783,0.0245945 -0.163606,0.0675236 -0.316417,0.282748 -0.14737,0.422709 -0.0505512,0.0554685 -0.0647323,0.140346 -0.116102,0.201717 -0.00823228,0.00983465 -0.0128661,0.0114606 -0.0106063,0.0254803 0.0222559,0.0673465 0.010252,0.068122 0.0015,0.101169 -0.0127992,0.0483031 -0.0394055,0.0954449 -0.0536732,0.142654 -0.035,0.115787 -0.0554134,0.235965 -0.0747677,0.355165 -0.0120039,0.0739606 -0.0657008,0.270748 0.00352756,0.295114 0.00187795,0.0530472 0.0795669,0.0787677 0.123087,0.0529449 0.0462283,0.0207126 0.0782362,0.046315 0.120665,0.0295079 0.0124724,-0.00581102 0.0317953,-0.026626 0.0495118,-0.045248 0.0145039,-0.0152441 0.0431693,-0.0710039 0.057752,-0.0152402 0.0105315,0.040252 -0.010311,0.0985787 -0.0326614,0.135295z"
   id="path2057"
   inkscape:export-xdpi="41.084766"
   inkscape:export-ydpi="41.084766" />
  <path
   class="fil2"
   d="M2.20783 4.74041c-0.0191496,0.0464724 -0.0639882,0.0411378 -0.069126,-0.00444094 -0.00313386,-0.0277795 0.0211732,-0.0249803 0.0186496,-0.00379528 -0.00325984,0.027315 0.0180039,0.0498701 0.0504764,0.00823622zm0.0145433 -0.144063c-0.0774252,0.0114843 -0.116764,0.0624291 -0.135587,0.129413 0.069937,-0.121445 0.153567,-0.0446811 0.0957008,0.0134606 0.0422795,-0.0136299 0.0551299,-0.0855866 0.00305512,-0.101854 0,0 -0.0248031,-0.0108976 0.0368307,-0.0410197zm0.4195 -0.050189c0.0749764,-0.0426378 0.162295,-0.0137874 0.206031,0.0446575 -0.117866,0.00275197 -0.14372,0.134862 -0.159327,0.183752 -0.000964567,-0.0854764 -0.0222992,-0.119732 -0.0758031,-0.152138 0.0274016,0.116681 -0.00407087,0.177421 -0.0754409,0.229465 0.0212205,-0.0622362 0.0160866,-0.13526 -0.0444961,-0.173516 0.0415236,-0.0260512 0.0538937,-0.131961 0.149035,-0.13222zm-0.000692913 -0.00348031c-0.0764134,-0.0110866 -0.118051,0.0523425 -0.170874,0.0942677 -0.0316811,0.0251496 -0.0865157,0.0508858 -0.139091,0.043748 -0.0240709,0.115472 -0.0957559,0.18178 -0.177433,0.197154l0.0750906 0.0268898c0.0525394,0.000598425 0.075311,-0.0454449 0.100295,-0.0937913 0.0738031,-0.142807 0.160531,-0.12137 0.156886,0.0257717 -0.00215748,0.0872323 -0.104024,0.154961 -0.0303819,0.291803 -0.0294488,-0.221807 0.157642,-0.15785 0.185551,-0.353835 0.0187244,0.117685 -0.0317638,0.151929 -0.106469,0.198685 0.25985,-0.0737559 0.166886,-0.336543 0.294894,-0.337413 0.0500591,-0.000338583 0.0627874,0.123307 -0.0506417,0.231839 0.0811772,-0.0306102 0.126807,-0.0800512 0.143291,-0.170575 0.000519685,-0.0368858 0.0520157,0.0450787 0.0267126,0.077 -0.100228,0.126441 -0.13874,0.258602 -0.0770236,0.38313 -0.0333346,-0.172898 0.13048,-0.305425 0.261106,-0.298803 -0.00389764,-0.171362 0.162177,-0.201224 0.158504,-0.123764 -0.00346457,0.0730315 0.00865354,0.117803 0.0285472,0.188122 -0.0249882,-0.237425 0.0640748,-0.584531 0.292024,-0.701406 -0.034689,-0.083 -0.0531378,-0.168807 0.0281929,-0.321039 -0.0696772,-0.0122638 -0.132039,-0.0265827 -0.187547,-0.047689 0.00225591,0.00708661 0.00959055,0.0204252 0.0125157,0.0275748 -0.0395472,-0.025122 -0.19335,-0.0853425 -0.242299,-0.0915039 0.00603937,-0.00379921 0.0240827,-0.00247244 0.0297205,-0.00759449 -0.0929803,-0.0319094 -0.183287,-0.0541181 -0.293232,-0.044563 0.0293386,0.0129921 0.043878,0.0280157 0.0533228,0.042126 0.0552087,0.0824921 -0.15572,0.151366 0.0840866,0.128441 0.210268,-0.0201063 0.379646,0.0658386 0.331791,0.293374 -0.114791,0.130181 -0.136846,0.251827 -0.146815,0.423331 -0.189587,-0.0436575 -0.165976,0.195878 -0.320929,0.225886 0.101484,-0.167689 -0.0278937,-0.374862 -0.194728,-0.371335 0.0597835,-0.0902008 0.0566772,-0.208295 -0.0134449,-0.328492 0.0731772,0.189894 0.00510236,0.314394 -0.111622,0.392661zm-0.520508 -0.206748c0.0240197,-0.110122 0.0641969,-0.171598 0.0984291,-0.224335 0.0232559,-0.0358228 0.00695669,-0.1055 -0.00229528,-0.161177 0.0462283,0.0259921 0.0634055,-0.185657 0.221476,-0.207642 0.0294528,-0.00892126 0.0855276,0.0270669 0.139252,-0.0121142 -0.000633858,-0.00581102 0.00587008,-0.0222874 0.0125433,-0.0292795 0.0662205,-0.0694213 0.121051,-0.029811 0.172217,-0.00130315 0.164921,0.0918425 0.290941,0.016563 0.294654,-0.175406 0.00133071,-0.0685787 -0.0298071,-0.162449 0.0865709,-0.189764 -0.0558071,-0.00822047 -0.156449,0.0369055 -0.172339,0.174638 -0.0219606,0.190343 -0.114209,0.164248 -0.154378,0.156976 0.0453425,0.00306299 0.0857559,-0.00861417 0.10652,-0.0431181 -0.114602,-0.0105787 -0.19774,-0.231626 -0.450539,0.0346457 -0.0209724,0.0220866 -0.0839134,0.0118031 -0.0920276,0.0127008 -0.0279803,0.00061811 -0.0496575,0.0142913 -0.0726378,0.0360906 0.0155748,-0.0379685 0.047874,-0.0532087 0.0798701,-0.0593583 -0.117921,-0.088874 -0.0656299,-0.270134 0.0902559,-0.348547 -0.0960709,0.0069685 -0.268732,0.141256 -0.259945,0.288161 0.0022126,0.0369567 0.0267835,0.0766772 0.061878,0.107634 0.00501575,0.00442126 0.0147244,0.0127717 0.018378,0.0226614 -0.0388268,0.0350669 -0.044874,0.0753504 -0.0661535,0.123142 -0.0122047,0.0274055 -0.0431024,0.0712874 -0.065878,0.0969134 -0.000244094,0.00112205 0.0272362,0.0250394 0.00890551,0.106783 -0.00474803,0.00921654 -0.0184764,0.0316299 -0.0236969,0.0436575 -0.049185,0.113358 -0.0804409,0.261965 -0.111827,0.456898 -0.00798819,0.049626 -0.0427992,0.225047 -0.0258386,0.252067 0.00466535,0.00742913 0.0122598,0.0234961 0.0310945,0.0310236 -0.0106102,0.0269528 0.0262441,0.0439252 0.0648031,0.0488976 0.0851654,-0.0279882 0.156476,-0.0715276 0.17989,-0.14763 -0.0408543,0.065063 -0.131823,0.118094 -0.17674,0.111685 -0.0093622,-0.00133858 -0.0303346,-0.00378346 -0.0294843,-0.0366575 -0.0396929,-0.016563 -0.0379252,-0.074248 -0.0236969,-0.120362 0.0153465,-0.0497126 0.0559331,-0.105492 0.0997638,-0.132173 -0.0292559,0.00281102 -0.0561142,0.0135157 -0.074563,0.0362402 0.0204724,-0.0992598 0.086685,-0.209024 0.132409,-0.25524 0.0526614,-0.0532244 0.00714961,-0.121209 -0.00148425,-0.160634 -0.024,0.0266693 -0.069437,0.0933583 -0.0953858,0.163925zm0.482028 -0.500551c0.0520709,-0.119972 0.329181,-0.0858543 0.318783,-0.046437 -0.0260472,0.0987677 -0.0834921,0.203858 -0.179622,0.185118 -0.0559055,-0.0108976 -0.0873898,-0.086878 -0.186701,-0.0640866 0.085126,-0.0357008 0.116579,0.000933071 0.180669,0.029626 0.0640906,0.028689 0.127409,-0.0393307 0.152394,-0.10985 0.0148386,-0.0418937 -0.0987087,-0.0928346 -0.153343,-0.0409055 -0.0454843,0.0432362 -0.0308858,0.0646417 -0.0509528,0.0610551l-0.0812283 -0.0145197zm-0.22052 1.10491c0.0330039,-0.0382047 0.0573268,-0.0830433 0.0531811,-0.130583 -0.00508661,-0.0583425 -0.0594213,-0.0456181 -0.0825354,0.00212598 0.0545787,-0.00831102 0.0609252,0.0656181 0.0293543,0.128457z"
   id="path2059"
   inkscape:export-xdpi="41.084766"
   inkscape:export-ydpi="41.084766" />
  <path
   class="fil3"
   d="M2.28204 4.12361c0.0528661,-0.105445 0.109409,-0.157744 0.173933,-0.185264 -0.0407283,0.0393858 -0.0720433,0.0962638 -0.0816732,0.135988 -0.0233937,0.00659843 -0.063248,0.0258504 -0.0922598,0.0492756z"
   id="path2061"
   inkscape:export-xdpi="41.084766"
   inkscape:export-ydpi="41.084766" />
  <path
   class="fil4"
   d="M2.49833 3.79128c-0.166276,0.0559528 -0.158449,0.154484 -0.156126,0.191724 -0.0237323,0.0271142 -0.0600197,0.0856614 -0.0774764,0.130382 -0.00362205,-0.048374 0.00766929,-0.284358 0.233602,-0.322106z"
   id="path2063"
   inkscape:export-xdpi="41.084766"
   inkscape:export-ydpi="41.084766" />
  <path
   class="fil1"
   d="M3.49455 4.79295l-0.00632283 -0.00235433 -0.00622441 -0.00275197 -0.00611024 -0.00317717 -0.006 -0.00362205 -0.00587008 -0.00407874 -0.0057126 -0.00453937 -0.00552756 -0.0050315 -0.00534252 -0.00553937 -0.00511417 -0.00605906 -0.0048622 -0.00657874 -0.00458268 -0.00713386 -0.00429528 -0.00770079 -0.00397244 -0.00826378 -0.00361811 -0.00884252 -0.00323622 -0.00943701 -0.00283465 -0.0100433 -0.00240945 -0.0106457 -0.00195669 -0.0112638 -0.0014685 -0.0118937 -0.000972441 -0.0125236 -0.000444882 -0.0131693 0.000106299 -0.013811 0.000688976 -0.0144685 0.00127953 -0.0151299 0.00190157 -0.0158031 0.00253937 -0.0164764 0.00350787 -0.0187362 0.00396457 -0.0179409 0.00441339 -0.0171575 0.00484252 -0.016374 0.00526772 -0.0156063 0.00567323 -0.0148386 0.00606693 -0.0140866 0.00643307 -0.0133386 0.00680315 -0.0126102 0.00714173 -0.0118819 0.00747244 -0.0111772 0.00777953 -0.0104803 0.00807874 -0.00980315 0.00835827 -0.00914173 0.00862205 -0.00849606 0.00887795 -0.00787008 0.00914567 -0.00727953 0.00938976 -0.00670472 0.0096378 -0.00614961 0.00988583 -0.00561417 0.0101654 -0.00511024 0.0104252 -0.00461811 0.0107126 -0.00414567 0.0110039 -0.00367717 0.0113189 -0.00323622 0.011622 -0.0027874 0.0119409 -0.00234646 0.0122559 -0.00191339 0.0125709 -0.00148819 0.012874 -0.00105512 0.013189 -0.000629921 0.0136654 -0.000212598 0.00451575 1.9685e-005 0.0046378 5.11811e-005 0.00458268 9.05512e-005 0.00451575 0.000125984 0.00446063 0.00015748 0.00438976 0.00019685 0.0043189 0.000232283 0.00425984 0.000267717 0.0042126 0.00030315 0.00413386 0.000334646 0.00404724 0.000366142 0.004 0.000409449 0.00394882 0.000437008 0.00385433 0.000476378 0.00378346 0.0005 0.00374409 0.000547244 0.0036811 0.000574803 0.00357874 0.000602362 0.00351969 0.000637795 0.00345669 0.000673228 0.00339764 0.000700787 0.0033189 0.00073622 0.00324803 0.00076378 0.00317717 0.000799213 0.00311811 0.000826772 0.00303543 0.000858268 0.00296457 0.00088189 0.00289764 0.00092126 0.00283465 0.000944882 0.00274409 0.000968504 0.00268898 0.00100787 0.0309685 0.0122008 0.0890315 -0.212272 -0.0203386 -0.00761417 -0.00386614 -0.00137008 -0.0040315 -0.00135827 -0.00419291 -0.00133858 -0.00438583 -0.00133858 -0.00455906 -0.0013189 -0.00475197 -0.00131102 -0.00491732 -0.00127559 -0.00508661 -0.00126378 -0.00528346 -0.00124409 -0.00546457 -0.0012126 -0.00561811 -0.00117717 -0.00580709 -0.00115748 -0.00599213 -0.00112205 -0.00616535 -0.00108268 -0.00633858 -0.00103937 -0.00651181 -0.00100787 -0.00670472 -0.00096063 -0.00687008 -0.000913386 -0.00705118 -0.000858268 -0.00720866 -0.000811024 -0.00739764 -0.000755906 -0.0075748 -0.00069685 -0.00773622 -0.000629921 -0.00790551 -0.000574803 -0.00808268 -0.0005 -0.00825591 -0.000437008 -0.0084252 -0.000358268 -0.00858661 -0.000287402 -0.00876772 -0.000204724 -0.0089252 -0.000125984 -0.00929134 -4.33071e-005 -0.0257205 0.00042126 -0.0259291 0.00128346 -0.0258898 0.00214961 -0.0258189 0.00302756 -0.0256929 0.00390551 -0.0255394 0.00479528 -0.0253386 0.00568898 -0.0251063 0.00660236 -0.0248071 0.0075 -0.0244882 0.00842913 -0.0241063 0.00935039 -0.0236969 0.0102795 -0.0232205 0.0112126 -0.0227126 0.0121496 -0.0221575 0.0130906 -0.0215591 0.0140394 -0.0209016 0.0149685 -0.0202126 0.0159252 -0.0194764 0.0168661 -0.0186929 0.017815 -0.0178701 0.018752 -0.0170118 0.0197008 -0.0161142 0.0206417 -0.0151732 0.0215866 -0.014189 0.0225354 -0.0131811 0.0234764 -0.012126 0.0244213 -0.0110472 0.025374 -0.00991732 0.0263268 -0.00877165 0.0272835 -0.00757874 0.0282402 -0.00633858 0.0291142 -0.0025748 0.0141417 -0.00222047 0.0139646 -0.00187402 0.013878 -0.0015315 0.0137795 -0.00117323 0.0136654 -0.000826772 0.0135472 -0.000472441 0.0134291 -0.00011811 0.0133031 0.000248031 0.0131575 0.000594488 0.0130118 0.000964567 0.0128622 0.0013189 0.0127087 0.00169291 0.0125394 0.00205906 0.0123622 0.00242913 0.0121772 0.00279528 0.012 0.00318898 0.0117992 0.00355118 0.0115906 0.00394488 0.011378 0.00431102 0.0111614 0.00471654 0.010937 0.00509449 0.0106969 0.00548819 0.0104528 0.00588583 0.0102126 0.00629528 0.00994094 0.00668898 0.00967323 0.00709843 0.0093937 0.0075 0.00911417 0.0079252 0.0088189 0.00833465 0.00850787 0.00874803 0.00818898 0.00901575 0.00774016 0.00665354 0.00545669 0.00689764 0.00535039 0.0071063 0.00519291 0.0073189 0.00504724 0.00754331 0.00488976 0.00775984 0.00473622 0.0079685 0.00456299 0.00818898 0.00440945 0.0084252 0.00424409 0.0086378 0.0040748 0.00887008 0.00390551 0.00908268 0.00374016 0.00933071 0.00356693 0.00955512 0.00338976 0.00977953 0.0032126 0.0100157 0.00304331 0.0102598 0.0028622 0.0104882 0.0026811 0.0107244 0.0025 0.0109606 0.00232283 0.0112126 0.0021378 0.0114449 0.00196063 0.0116929 0.00177559 0.0119409 0.00159449 0.0121969 0.00140157 0.0124449 0.00122047 0.0126969 0.0010315 0.0129449 0.000854331 0.0132165 0.00065748 0.0134764 0.000472441 0.0137362 0.000283465 0.0139921 9.84252e-005 0.0088622 -5.51181e-005 0.00897244 -0.000149606 0.00908661 -0.000251969 0.00916929 -0.000338583 0.00926772 -0.000429134 0.00932283 -0.000507874 0.00937008 -0.000594488 0.00941339 -0.000665354 0.00944488 -0.000744094 0.00942913 -0.000807087 0.0094252 -0.000874016 0.0093937 -0.000933071 0.00935039 -0.000992126 0.00928346 -0.00104331 0.0092126 -0.00109449 0.00911811 -0.00114173 0.00901969 -0.00118898 0.00888189 -0.00122441 0.00874016 -0.00125984 0.00859055 -0.00129528 0.00841732 -0.00132677 0.00821654 -0.00134646 0.00801181 -0.00137402 0.0078189 -0.00138976 0.0075748 -0.00141339 0.00732283 -0.0014252 0.00705906 -0.00143701 0.00679528 -0.00144488 0.00651969 -0.00146063 0.00622441 -0.00146457 0.00591732 -0.00148031 0.0228346 -0.00602362 0.0879094 -0.514598 -0.377311 0 -0.0345354 0.202157 0.0841772 0 -0.0242638 0.142039 -7.08661e-005 0 -0.00328346 7.87402e-006 -0.00705512 -0.000177165 -0.0066378 -0.000511811 -0.00658661 -0.000858268 -0.0065315 -0.0012126 -0.00646457 -0.00157874 -0.00640551 -0.00196063zm0.770122 -0.191976l0.00252362 0.00840945 0.00253937 0.00833465 0.00255118 0.00822835 0.00255118 0.00811024 0.00254331 0.0079685 0.00253937 0.00782283 0.00251969 0.00764961 0.00250394 0.00746457 0.00247244 0.00725984 0.00244882 0.00703937 0.00240157 0.00679134 0.00234646 0.00649213 0.110417 0.306268 0.284886 0 0.156134 -0.913957 -0.282827 0 -0.0275512 0.161283 -0.00261811 0.0156063 -0.00250787 0.0156378 -0.00240945 0.015622 -0.00230709 0.0155827 -0.0022126 0.0155276 -0.00211417 0.0154606 -0.00202362 0.0153661 -0.00192913 0.0152598 -0.00184646 0.0151181 -0.00175984 0.0149882 -0.00167717 0.014815 -0.00159449 0.014626 -0.00151969 0.0144252 -0.00144094 0.0142047 -0.00137402 0.0139606 -0.00129921 0.0137087 -0.00123622 0.0134173 -0.00116929 0.0131299 -0.000795276 0.00918504 -0.0014685 -0.0045748 -0.00257874 -0.008 -0.00257087 -0.00793307 -0.00255512 -0.00785039 -0.00254724 -0.00773622 -0.00250787 -0.00761024 -0.00248425 -0.00747244 -0.00243701 -0.00730709 -0.00240551 -0.00714173 -0.00234252 -0.00693701 -0.00229134 -0.00672835 -0.00222047 -0.00649606 -0.00215354 -0.00625984 -0.00207874 -0.00598425 -0.00199213 -0.00570079 -0.00188189 -0.00535039 -0.113504 -0.327843 -0.285059 0 -0.156134 0.913957 0.282827 0 0.0289567 -0.169504 0.00270472 -0.0160197 0.00262205 -0.0158622 0.00253937 -0.0157008 0.00245669 -0.0155157 0.00236614 -0.0153307 0.00230315 -0.0151339 0.00221654 -0.0149331 0.0021378 -0.0147205 0.00206693 -0.0145039 0.00198819 -0.0142756 0.00191732 -0.0140394 0.00185433 -0.0137953 0.00177165 -0.0135472 0.00171654 -0.0132874 0.00164173 -0.0130197 0.00158661 -0.0127441 0.00151181 -0.0124724 0.000590551 -0.00492126 0.00128346 0.00449213 0.00248031 0.00851969 0.00250787 0.00847638zm0.717713 -0.516118l-0.0925039 0.541496 -0.00327165 0.0206378 -0.00267717 0.0203071 -0.00205118 0.0198701 -0.00139764 0.0194291 -0.000732283 0.0189724 -1.9685e-005 0.0185157 0.00069685 0.0180394 0.00145276 0.0175551 0.00222441 0.0170591 0.00303543 0.0165512 0.00387008 0.0160276 0.00474016 0.0155 0.00563386 0.0149488 0.00657087 0.0143858 0.00752756 0.0137953 0.00852756 0.0131929 0.00953937 0.0125551 0.0105906 0.0118937 0.0116535 0.0112087 0.0127559 0.0104921 0.0138386 0.00973622 0.0149331 0.00896457 0.0160433 0.00816535 0.0171496 0.00734646 0.0182323 0.00650787 0.0193346 0.00565354 0.0204173 0.00479921 0.0215197 0.00394094 0.0226142 0.00306299 0.0237205 0.00219685 0.0248583 0.00132283 0.0260157 0.000440945 0.0239016 -0.00042126 0.023311 -0.00125984 0.0227205 -0.00210236 0.0221378 -0.00293307 0.0215394 -0.00377165 0.020937 -0.00459843 0.020315 -0.00543307 0.0196969 -0.00624803 0.0190551 -0.00706693 0.0183898 -0.0078622 0.0177126 -0.00864173 0.0170236 -0.00940157 0.0163228 -0.0101535 0.0156102 -0.0108701 0.0148898 -0.0115669 0.014189 -0.012248 0.0134646 -0.0129094 0.0127638 -0.0135433 0.012063 -0.0141654 0.011378 -0.0147677 0.0107047 -0.0153661 0.0100354 -0.015937 0.00938189 -0.0165118 0.00875197 -0.0170709 0.0081063 -0.017626 0.00749213 -0.0181575 0.00688189 -0.0186969 0.00628346 -0.0192205 0.00568898 -0.0197441 0.0051063 -0.020252 0.00452362 -0.0207598 0.00394094 -0.0211457 0.0929528 -0.544118 -0.317185 0 -0.0991339 0.580295 -0.00200394 0.0110512 -0.00211024 0.0104016 -0.00222047 0.00982677 -0.00232677 0.00926772 -0.00243701 0.00871654 -0.00252362 0.0081811 -0.00261417 0.00764567 -0.00269291 0.00712205 -0.00276378 0.00661024 -0.0028189 0.00611417 -0.00287008 0.00561811 -0.0028937 0.0051378 -0.00291339 0.00466142 -0.00291339 0.0042126 -0.00290945 0.00377165 -0.00285433 0.00333858 -0.00280709 0.00292913 -0.00275197 0.00256299 -0.0026811 0.00222047 -0.00259449 0.00190157 -0.0025315 0.00162205 -0.00247638 0.0013937 -0.00245669 0.00118898 -0.00244094 0.00101181 -0.00249606 0.000870079 -0.0025748 0.000744094 -0.00270079 0.000629921 -0.0028189 0.000519685 -0.00297638 0.000401575 -0.00316142 0.000287402 -0.00333071 0.000177165 -0.00335433 5.90551e-005 -0.0030315 -6.69291e-005 -0.00280315 -0.00019685 -0.00266142 -0.000322835 -0.0025315 -0.000452756 -0.00242126 -0.00057874 -0.00232677 -0.000712598 -0.00224803 -0.000858268 -0.00219685 -0.00101575 -0.00217717 -0.0012126 -0.00214567 -0.00141732 -0.00212992 -0.00164961 -0.00211024 -0.00192126 -0.00207874 -0.0022126 -0.0020315 -0.00252362 -0.00197638 -0.0028622 -0.0018937 -0.00322047 -0.00179921 -0.00360236 -0.00166929 -0.00398425 -0.00153543 -0.00438583 -0.00137008 -0.00479134 -0.00119685 -0.00521654 -0.000996063 -0.00563386 -0.000791339 -0.00607087 -0.000562992 -0.00651181 -0.000334646 -0.00696457 -7.87402e-005 -0.00740157 0.000181102 -0.00787402 0.000452756 -0.00833465 0.000732283 -0.00881102 0.00102362 -0.00927953 0.00133071 -0.00977165 0.00165354 -0.0103425 0.0991299 -0.580291 -0.317181 0z"
   id="path2065"
   inkscape:export-xdpi="41.084766"
   inkscape:export-ydpi="41.084766" />
  <path
   class="fil5"
   d="M3.86077 4.47429l-0.326394 0 -0.0279606 0.163657 0.0841811 0 -0.0304016 0.177953c-0.0090315,0.00259449 -0.0193425,0.00259449 -0.0296496,0.00259449 -0.0893268,0 -0.173327,-0.071437 -0.141819,-0.255882 0.0357244,-0.209122 0.155327,-0.28576 0.311654,-0.28576 0.053252,0 0.096811,0.00649606 0.128949,0.0194843l0.0724567 -0.172752c-0.0338543,-0.0129921 -0.10013,-0.0272795 -0.19461,-0.0272795 -0.264555,0 -0.532236,0.138984 -0.591917,0.448122 -0.0285118,0.146776 0.000397638,0.279264 0.093811,0.355898 0.0660433,0.0558583 0.163752,0.0872441 0.309772,0.0872441 0.0893307,0 0.20735,-0.0170984 0.25961,-0.0313858l0.0823189 -0.481894zm0.310512 0.505272l0.0256654 -0.15024c0.029252,-0.17124 0.0437244,-0.316283 0.0514016,-0.391402l0.00343701 0c0.00955512,0.0647283 0.0431024,0.180114 0.0676732,0.247441l0.106067 0.294201 0.242224 0 0.149555 -0.875461 -0.231913 0 -0.0242598 0.142012c-0.0282913,0.16561 -0.0384252,0.335551 -0.0437598,0.406988l-0.00343701 0c-0.0176614,-0.0675433 -0.053811,-0.177732 -0.0735079,-0.233366l-0.10928 -0.315634 -0.24222 0 -0.149555 0.875461 0.231909 0zm0.833272 -0.875461l-0.0892008 0.522157c-0.0375,0.219516 0.0237244,0.363909 0.29515,0.363909 0.245657,0 0.377217,-0.136598 0.415606,-0.361311l0.0896417 -0.524756 -0.266272 0 -0.0958543 0.561126c-0.0210827,0.123394 -0.0650315,0.149374 -0.11485,0.149374 -0.0480945,0 -0.0835591,-0.0337717 -0.063811,-0.149374l0.0958583 -0.561126 -0.266268 0z"
   id="path2067"
   inkscape:export-xdpi="41.084766"
   inkscape:export-ydpi="41.084766" />
  <path
   class="fil6"
   d="M6.09313 2.85209l2.45315 0c0.146724,0 0.266772,0.120055 0.266772,0.266772l0 2.46646c0,0.146713 -0.120059,0.266772 -0.266772,0.266772l-2.41794 0 0.00149606 -0.000755906c-0.551626,-1.25909 0.479335,-1.89318 -0.0354016,-2.99613l-0.00131102 -0.00311811z"
   id="path2069"
   style="fill:#ffffff"
   inkscape:export-xdpi="41.084766"
   inkscape:export-ydpi="41.084766" />
  <path
   class="fil7"
   d="M5.9132 5.2684c0.0212047,0.201091 0.0750866,0.397291 0.152087,0.583697l-0.135898 0c-0.101807,-0.272 -0.137213,-0.558937 -0.109752,-0.849949 0.0519724,-0.35763 0.191106,-0.681213 0.300512,-1.02278l0.0064685 -0.0221339c-0.0350394,0.151012 -0.0791969,0.299587 -0.118406,0.449512 -0.0747244,0.285756 -0.122209,0.567087 -0.0950118,0.86165z"
   id="path2071"
   inkscape:export-xdpi="41.084766"
   inkscape:export-ydpi="41.084766" />
  <path
   class="fil1"
   d="M7.20012 3.5525l-0.00198819 0.00557874 -0.00197638 0.00555118 -0.00198031 0.00554724 -0.00197638 0.00554331 -0.00107874 0.00303543 4.72441e-005 -0.00198031 0.000153543 -0.00575591 0.000137795 -0.00575197 0.000141732 -0.00572047 0.000141732 -0.0057126 0.000141732 -0.00569685 0.000192913 -0.00795669 0.000374016 -0.0145787 0.00410236 -0.208598 -0.168496 0 0.0184016 0.539256 0.173799 0 0.0671417 -0.17426 0.00247244 -0.00635433 0.00246063 -0.00637795 0.00241339 -0.00633071 0.00238189 -0.00629134 0.00233465 -0.00623228 0.00229921 -0.00618504 0.00226378 -0.00614173 0.00223622 -0.00611417 0.00219685 -0.00605512 0.00141339 -0.00392913 -7.48031e-005 0.0042874 -8.26772e-005 0.00556299 -7.48031e-005 0.00557087 -5.11811e-005 0.00556299 -4.72441e-005 0.00555906 -2.75591e-005 0.00554724 -1.9685e-005 0.00553937 -3.93701e-006 0.00548031 -0.000826772 0.191161 0.172516 0 0.23202 -0.539256 -0.177945 0 -0.0698504 0.201602 -0.00188189 0.00543701 -0.00187795 0.00543307 -0.00188189 0.00546063 -0.00187008 0.00544094 -0.00187795 0.00545669 -0.00187402 0.0054685 -0.00187008 0.00546457 -0.000885827 0.00259055 0.000212598 -0.00531496 0.000200787 -0.0053189 0.000212598 -0.00533465 0.000212598 -0.00537795 0.000216535 -0.00545669 0.00737402 -0.215551 -0.174756 0 -0.0729094 0.20287 -0.00202362 0.0056378 -0.00200787 0.00561417 -0.00200787 0.00561024 -0.00399606 0.011189 -0.00199213 0.0055748zm0.828453 -0.0461299l-0.176992 0 0.00844094 -0.0429606 0.186717 0 0.0284685 -0.147406 -0.354126 0 -0.102417 0.539256 0.364374 0 0.0284646 -0.147409 -0.197728 0 0.0107087 -0.054811 0.175571 0 0.0285197 -0.146669zm-1.01538 1.02688l0.00183071 0.00489764 0.00167323 0.00595276 0.00146457 0.00705906 0.00120472 0.00819291 0.000964567 0.00968504 0.00109449 0.0116339 0.00109449 0.0111299 0.00107087 0.0105551 0.00106299 0.00998031 0.00103543 0.00940157 0.0010315 0.00885433 0.00101575 0.00828346 0.00100394 0.00772441 0.000984252 0.00716929 0.000976378 0.00664173 0.000968504 0.0061063 0.000964567 0.00559055 0.00096063 0.00509843 0.000972441 0.00462992 0.00100394 0.00422047 0.00499606 0.0180866 0.175055 0 -0.0124685 -0.0294055 -0.000531496 -0.0014685 -0.000598425 -0.00191732 -0.000637795 -0.00231496 -0.000661417 -0.00268898 -0.000665354 -0.00301181 -0.000669291 -0.0032874 -0.000653543 -0.00354724 -0.000653543 -0.00380315 -0.000641732 -0.00400787 -0.000633858 -0.0042126 -0.000622047 -0.00438189 -0.000614173 -0.00454331 -0.000594488 -0.00468898 -0.000594488 -0.00483465 -0.000582677 -0.00494488 -0.000582677 -0.00505512 -0.000574803 -0.00512205 -0.000562992 -0.00520079 -0.000566929 -0.00526378 -0.000562992 -0.00530709 -0.000562992 -0.00533465 -0.000566929 -0.00533465 -0.000555118 -0.00534646 -0.000574803 -0.00535433 -0.000570866 -0.00531102 -0.000582677 -0.00527165 -0.00057874 -0.00521654 -0.000602362 -0.00517323 -0.000602362 -0.00508661 -0.000622047 -0.00498425 -0.000622047 -0.00487402 -0.00110236 -0.00822835 -0.00131102 -0.00817323 -0.00152756 -0.00794488 -0.00176772 -0.00771654 -0.0020315 -0.00749213 -0.00231496 -0.00724803 -0.00263386 -0.00701181 -0.00298425 -0.00677165 -0.00337795 -0.00651969 -0.0037874 -0.00623228 -0.00423622 -0.00591339 -0.00121654 -0.00144094 0.00244488 -0.0011811 0.0058937 -0.00304724 0.00575984 -0.0032126 0.00565748 -0.00338189 0.0055 -0.00355906 0.00535433 -0.00371654 0.00519685 -0.00389764 0.00505906 -0.00407874 0.00487402 -0.00427165 0.00470079 -0.00443701 0.00451181 -0.00463386 0.00433858 -0.00483071 0.00412598 -0.00503937 0.00390157 -0.00520866 0.00367323 -0.0053937 0.00346063 -0.00559449 0.00320472 -0.0057874 0.00295669 -0.00595276 0.00270079 -0.00614173 0.00244882 -0.00633071 0.00216535 -0.00651575 0.0018937 -0.00666929 0.0016063 -0.00683465 0.00132677 -0.00700394 0.00102756 -0.00717323 0.000748031 -0.00731496 0.000444882 -0.00748819 0.00015748 -0.00777953 -0.000366142 -0.0107323 -0.00107087 -0.0104724 -0.00176772 -0.0100787 -0.00243307 -0.00966929 -0.00308661 -0.00924803 -0.00367717 -0.00879528 -0.00425591 -0.00835433 -0.00479528 -0.00788976 -0.00528346 -0.0073937 -0.0057126 -0.00692126 -0.00612598 -0.00644094 -0.00647244 -0.00598031 -0.00679528 -0.00550394 -0.00706299 -0.00504724 -0.00730315 -0.0046063 -0.00717323 -0.00398819 -0.00403543 -0.00216535 -0.0042126 -0.00211417 -0.00429921 -0.00200394 -0.00435827 -0.0018937 -0.00438583 -0.00176378 -0.00441732 -0.00166929 -0.00448031 -0.00156299 -0.00451575 -0.00147638 -0.00457087 -0.00136614 -0.00457874 -0.00127953 -0.00458661 -0.00117323 -0.00461417 -0.00111024 -0.00467323 -0.00102362 -0.00466929 -0.000944882 -0.00467717 -0.000862205 -0.00469291 -0.000799213 -0.00472441 -0.000724409 -0.00470472 -0.000653543 -0.00470472 -0.000590551 -0.00470866 -0.000535433 -0.0047126 -0.000472441 -0.0046811 -0.00042126 -0.00468504 -0.000370079 -0.00467717 -0.000322835 -0.00466929 -0.000271654 -0.00464173 -0.000224409 -0.00460236 -0.000185039 -0.00458661 -0.000149606 -0.00456693 -0.000106299 -0.00452362 -7.87402e-005 -0.00447244 -3.93701e-005 -0.00444882 -1.9685e-005 -0.00528346 1.9685e-005 -0.00524803 4.72441e-005 -0.00523228 8.26772e-005 -0.00522835 9.84252e-005 -0.00522441 0.000141732 -0.0051811 0.000161417 -0.00517717 0.000192913 -0.00515354 0.000216535 -0.00513386 0.000255906 -0.00508268 0.000275591 -0.00504724 0.000307087 -0.00501181 0.000326772 -0.00496457 0.000362205 -0.00492126 0.000374016 -0.00487008 0.000413386 -0.00481102 0.00042126 -0.00479528 0.000464567 -0.00470472 0.000488189 -0.00463386 0.000507874 -0.00458268 0.000527559 -0.00450787 0.000559055 -0.00442126 0.000574803 -0.00436614 0.000598425 -0.0042874 0.000622047 -0.00421654 0.000653543 -0.00411024 0.000669291 -0.00401969 0.000688976 -0.00395276 0.000712598 -0.0038622 0.000744094 -0.00374016 0.000759843 -0.00366929 0.000783465 -0.0162008 0.00367717 -0.100311 0.526232 0.165929 0 0.0355591 -0.188146 0.00614961 0 0.00615748 0.000145669 0.00524409 0.000437008 0.00452362 0.000708661 0.00380709 0.000948819 0.00313386 0.0011378 0.0025748 0.00130709 0.00220079 0.00151181 0.00200394 0.00182677 0.00192913 0.00231496 0.00193307 0.00301969 0.00190945 0.0038937zm0.0406339 -0.230433l0.00445669 0.00127559 0.00404331 0.00150787 0.00359449 0.00169685 0.00314173 0.0018622 0.00267717 0.00198031 0.00222835 0.00207087 0.00183071 0.00216929 0.00149606 0.00231102 0.00118504 0.00250394 0.000905512 0.0028189 0.000594488 0.00326772 0.000224409 0.00381102 -0.000322835 0.00572441 -0.000917323 0.00535039 -0.00146457 0.00497638 -0.00198425 0.00464173 -0.00250787 0.00435827 -0.00301969 0.00410236 -0.00355906 0.00385039 -0.0040748 0.0035748 -0.00462205 0.00327953 -0.00515354 0.00297638 -0.00565354 0.0026063 -0.00612992 0.00220866 -0.00659449 0.00177559 -0.00701181 0.00130709 -0.0073937 0.000807087 -0.0080748 0.000291339 -0.0146496 0 0.0156339 -0.0806732 0.00387402 -0.000311024 0.00485827 -0.000259843 0.00540945 -0.000177165 0.00581102 -5.51181e-005 0.00580315 0.000149606 0.00540945 0.000456693 0.00513386 0.000740157 0.00482283 0.00102362zm0.261701 -0.137929l-0.0549567 0.288961 -0.000858268 0.00478346 -0.000811024 0.00477559 -0.000767717 0.00478346 -0.000724409 0.00476772 -0.000685039 0.00477559 -0.000633858 0.00477953 -0.000586614 0.00475591 -0.000531496 0.00473228 -0.000484252 0.00469685 -0.000429134 0.00469685 -0.000366142 0.00465748 -0.00030315 0.00459449 -0.000248031 0.00455512 -0.000173228 0.00451575 -0.00011811 0.00447244 -2.75591e-005 0.00451181 0.000192913 0.0105551 0.000590551 0.0104173 0.000996063 0.0101575 0.00139764 0.0098937 0.00179528 0.00962992 0.00221654 0.00936614 0.00261811 0.00908661 0.00303937 0.00880709 0.00344094 0.00850787 0.0038622 0.0082126 0.00427165 0.00789764 0.00468898 0.00759449 0.00509055 0.00724803 0.00549213 0.00690945 0.00588583 0.00654331 0.00625984 0.0061811 0.00662598 0.00579921 0.00699213 0.00542913 0.00733465 0.0050315 0.00766929 0.00464173 0.00797638 0.00424803 0.0082874 0.0038622 0.00859055 0.0034685 0.00888189 0.00308661 0.00915748 0.00270079 0.00944488 0.00231496 0.00969291 0.00193701 0.00997244 0.0015748 0.0102283 0.00119291 0.0104961 0.000838583 0.010748 0.000468504 0.0109488 0.000110236 0.0143228 -0.000240157 0.0139409 -0.000724409 0.0134961 -0.00120866 0.0130787 -0.00169685 0.0126457 -0.00220472 0.0122441 -0.00269291 0.0118268 -0.00320866 0.0114331 -0.00371654 0.0110118 -0.00424409 0.0106024 -0.00474803 0.0101969 -0.00527165 0.00978346 -0.00578346 0.0093622 -0.00629134 0.00894882 -0.00679134 0.00852756 -0.0072874 0.00811417 -0.00776378 0.00768898 -0.00824409 0.00727559 -0.0086811 0.00687795 -0.00912992 0.00649213 -0.00956299 0.0061063 -0.00998819 0.00574803 -0.0103976 0.0053937 -0.010811 0.00506693 -0.0112165 0.00473622 -0.011626 0.00443307 -0.0120118 0.00413386 -0.0124134 0.00387008 -0.0128071 0.00360236 -0.0132165 0.00335039 -0.0136102 0.00311417 -0.0140118 0.00287795 -0.0143189 0.0571063 -0.301606 -0.167362 0 -0.0571417 0.300579 -0.00299606 0.0147047 -0.00325984 0.0132047 -0.00355906 0.011937 -0.00383071 0.0106929 -0.00408661 0.00945276 -0.00430709 0.00826772 -0.00448819 0.00711811 -0.00463386 0.00602756 -0.00477559 0.0050315 -0.0049252 0.00415354 -0.0051378 0.0033937 -0.0054252 0.00272047 -0.00583858 0.00211417 -0.0063622 0.00153937 -0.00696063 0.000940945 -0.00755118 0.000322835 -0.00611417 -0.000271654 -0.00543701 -0.000751969 -0.00481496 -0.00116535 -0.00422835 -0.0015 -0.00373228 -0.00180315 -0.00331496 -0.0020748 -0.00294094 -0.00232677 -0.0026063 -0.00256693 -0.0023189 -0.00283071 -0.00204331 -0.00309449 -0.00176772 -0.00333465 -0.00148031 -0.00356299 -0.00119685 -0.00377953 -0.000889764 -0.00394488 -0.000574803 -0.00405512 -0.000259843 -0.00421654 1.9685e-005 -0.00334646 7.08661e-005 -0.00384646 0.000110236 -0.00377559 0.000161417 -0.00371654 0.00019685 -0.00367717 0.000240157 -0.00358661 0.000271654 -0.00352362 0.000314961 -0.00346457 0.000338583 -0.0033937 0.000370079 -0.0032874 0.000393701 -0.00320079 0.000433071 -0.00312992 0.000444882 -0.00304331 0.000464567 -0.00291732 0.000488189 -0.00282677 0.000515748 -0.00278346 0.0585945 -0.307402 -0.166657 0zm0.755791 0.203268l-0.00106299 0.00655512 -0.00101969 0.00646457 -0.00100394 0.00638583 -0.00096063 0.00633465 -0.000937008 0.00625591 -0.000535433 0.00369685 -0.000437008 -0.00167323 -0.00153937 -0.00581496 -0.00155906 -0.00583071 -0.00158268 -0.00585827 -0.0016063 -0.00588976 -0.00163386 -0.00592913 -0.00165354 -0.00594488 -0.00167717 -0.00598425 -0.00170079 -0.0060315 -0.00173228 -0.00606299 -0.00174803 -0.0061063 -0.00177953 -0.0061378 -0.00180709 -0.00623622 -0.0494764 -0.165461 -0.181846 0 -0.10161 0.539256 0.15774 0 0.029 -0.154098 0.00145276 -0.00779528 0.00143701 -0.00775591 0.0014252 -0.00773228 0.00141339 -0.00768898 0.0013937 -0.00766929 0.00137402 -0.00760236 0.00135827 -0.00755906 0.00134252 -0.00750787 0.00131496 -0.00745276 0.00129528 -0.00738583 0.00126772 -0.00730709 0.00125591 -0.00724016 0.00122441 -0.00716929 0.00120472 -0.0070748 0.00117323 -0.007 0.000838583 -0.00501575 0.00114961 0.00421654 0.00155906 0.00561811 0.00157087 0.00563386 0.0016063 0.00566929 0.00161024 0.00567717 0.00164173 0.00574016 0.00166929 0.00579528 0.00169685 0.00584252 0.0017126 0.00589764 0.00174803 0.00597244 0.00177165 0.00604724 0.00179921 0.00612992 0.00182677 0.00621654 0.0018622 0.0063189 0.00189764 0.00643701 0.0019685 0.00666929 0.0547677 0.177173 0.163921 0 0.101614 -0.539256 -0.158492 0 -0.0304843 0.162331 -0.00126378 0.00708661 -0.0012126 0.00693701 -0.0011811 0.00685039 -0.00114961 0.00676378 -0.00112205 0.0066811 -0.00109055 0.00661811zm-1.02513 1.04327l-0.00359449 9.44882e-005 -0.00359449 2.75591e-005 -0.0108189 -0.000354331 -0.0101024 -0.00102362 -0.00955118 -0.00169685 -0.00894094 -0.00235433 -0.00831102 -0.00300787 -0.00764567 -0.0036378 -0.00697638 -0.00425591 -0.00631102 -0.00488583 -0.00568898 -0.00556299 -0.00505906 -0.00628346 -0.00443701 -0.00710236 -0.0037874 -0.00800787 -0.0031063 -0.00903937 -0.00233071 -0.010122 -0.0014685 -0.0112874 -0.000519685 -0.0127559 7.48031e-005 -0.00554724 0.000224409 -0.00572835 0.000374016 -0.00562205 0.000527559 -0.00552362 0.000661417 -0.00544488 0.000807087 -0.00533071 0.000937008 -0.00524409 0.00107874 -0.00514173 0.00120472 -0.00506299 0.00132677 -0.00495276 0.00144882 -0.00483465 0.00158268 -0.00475197 0.00169291 -0.00465748 0.00180709 -0.00453543 0.00192126 -0.00444882 0.00204331 -0.00435433 0.00213386 -0.00424803 0.00224409 -0.00413386 0.00233858 -0.0040315 0.00244488 -0.00392913 0.00254331 -0.00383071 0.00262992 -0.00370866 0.00272441 -0.00361417 0.0028189 -0.00350394 0.00290157 -0.00340551 0.00298031 -0.00327953 0.00305512 -0.00316929 0.00314961 -0.00306299 0.00320866 -0.00295276 0.00329134 -0.00283071 0.00335433 -0.00272047 0.00305118 -0.00231496 0.0046378 -0.00298819 0.00514173 -0.00298425 0.00537795 -0.0028189 0.00562205 -0.00264961 0.00583465 -0.0024685 0.00605512 -0.00227953 0.00626378 -0.00208268 0.00649606 -0.00188583 0.00668898 -0.00168898 0.00687795 -0.00147244 0.00706693 -0.00126378 0.00726772 -0.00104331 0.00742913 -0.000822835 0.00761024 -0.000586614 0.00776772 -0.000358268 0.00793307 -0.000114173 0.00755512 0.000114173 0.00748425 0.00034252 0.00738583 0.00053937 0.00727559 0.000740157 0.0071378 0.000905512 0.00696457 0.00107087 0.00678346 0.00119685 0.0065748 0.0013189 0.00631102 0.00140945 0.00603937 0.00148819 0.00572441 0.00153937 0.00539764 0.00158268 0.00503937 0.00159449 0.00464961 0.00158661 0.00419685 0.00154724 0.0234488 0.00934646 0.0499134 -0.143756 -0.0190079 -0.00851181 -0.00266535 -0.00111417 -0.00281102 -0.00109449 -0.00291732 -0.00106299 -0.00306693 -0.00105512 -0.0032126 -0.00104331 -0.00334646 -0.00102362 -0.00347244 -0.00100394 -0.00364567 -0.00100394 -0.00377559 -0.000972441 -0.00391339 -0.000964567 -0.00405118 -0.000933071 -0.00419685 -0.00092126 -0.00434252 -0.000889764 -0.00446457 -0.000866142 -0.00459449 -0.000830709 -0.00473228 -0.000811024 -0.00487008 -0.000771654 -0.005 -0.00073622 -0.00510236 -0.000688976 -0.00524016 -0.000661417 -0.0053622 -0.000610236 -0.00547244 -0.000562992 -0.00558661 -0.000511811 -0.00569685 -0.000464567 -0.00581102 -0.000413386 -0.00593701 -0.000362205 -0.00601969 -0.000287402 -0.00612598 -0.000240157 -0.00623622 -0.000173228 -0.00633465 -0.000106299 -0.00645276 -2.75591e-005 -0.00868504 7.48031e-005 -0.00866535 0.000224409 -0.00862205 0.00038189 -0.0085315 0.00053937 -0.00848031 0.000681102 -0.00840945 0.00084252 -0.00834252 0.000988189 -0.00825984 0.00114173 -0.00819291 0.0012874 -0.00811811 0.00144094 -0.00804724 0.00158661 -0.00794094 0.00173622 -0.00788583 0.00187795 -0.00779921 0.00204331 -0.00770866 0.0021811 -0.0076063 0.00233465 -0.00751969 0.00246457 -0.00743307 0.00262205 -0.00735039 0.00276378 -0.00723228 0.00291732 -0.00714173 0.00305512 -0.00703937 0.00320472 -0.00694094 0.00335039 -0.00681496 0.00349606 -0.0067126 0.00362598 -0.00660236 0.00378346 -0.00649606 0.00391732 -0.00637008 0.00407087 -0.00624409 0.00419685 -0.0061378 0.00435433 -0.00600394 0.00449213 -0.00594882 0.00468504 -0.00638583 0.00540551 -0.00616535 0.00551575 -0.00601575 0.0056811 -0.00585039 0.00584252 -0.00569685 0.00599213 -0.0055315 0.00616535 -0.00536614 0.00631496 -0.00518504 0.00646457 -0.00502362 0.00661417 -0.00484252 0.00677953 -0.00466535 0.00691732 -0.00448031 0.00707874 -0.00429528 0.00722047 -0.00410236 0.00737008 -0.00390945 0.00751181 -0.00369685 0.00764567 -0.00350787 0.00777559 -0.00330315 0.00792913 -0.00309449 0.00805512 -0.00287795 0.00819291 -0.00267717 0.00831496 -0.00245276 0.00846063 -0.00223228 0.00858268 -0.002 0.00869685 -0.00178346 0.00881102 -0.00155512 0.00895276 -0.00132283 0.00906299 -0.00108661 0.00917323 -0.000854331 0.00929921 -0.000606299 0.00940945 -0.000370079 0.00951181 -0.000114173 0.00962598 7.87402e-005 0.00697638 0.000259843 0.00690157 0.00042126 0.00681496 0.000590551 0.00673622 0.000751969 0.00664961 0.000917323 0.0065748 0.00107874 0.00646063 0.00122835 0.00637008 0.00137795 0.0062874 0.00154331 0.00618898 0.00168504 0.00608661 0.00183858 0.006 0.00197638 0.00588189 0.00212598 0.00578346 0.00225984 0.00567323 0.00240551 0.00556693 0.00252756 0.00544882 0.00267323 0.00534646 0.00279528 0.00522441 0.00293307 0.00511811 0.00304724 0.00498031 0.00317717 0.00486614 0.00329528 0.00474409 0.00341732 0.00461417 0.00351969 0.00448425 0.00365354 0.00436614 0.00375197 0.00422047 0.0038622 0.00408661 0.00395669 0.00394488 0.00407874 0.00381496 0.00416535 0.00366535 0.00427559 0.0035315 0.00451575 0.00348819 0.00455512 0.00334646 0.0046378 0.00322441 0.00472047 0.00311811 0.00479921 0.003 0.0048937 0.00290157 0.00496063 0.00277559 0.00505118 0.0026811 0.00512205 0.00255118 0.00518898 0.00244882 0.00527953 0.00233858 0.00535827 0.00222835 0.00541732 0.00211024 0.00548819 0.00200394 0.00555118 0.00188976 0.00564567 0.00179134 0.00570472 0.00166929 0.00575984 0.00155906 0.0058189 0.00144882 0.00590551 0.00134646 0.00596063 0.00123228 0.00602362 0.00112992 0.00608661 0.00100787 0.00614961 0.000913386 0.00620079 0.000795276 0.00627559 0.00069685 0.00632283 0.000582677 0.00638976 0.000480315 0.00643701 0.000366142 0.00649213 0.000267717 0.00655512 0.00015748 0.00661024 5.90551e-005 0.00641339 -4.72441e-005 0.00637795 -0.000145669 0.00634646 -0.000232283 0.00633465 -0.000311024 0.00629134 -0.000401575 0.00624803 -0.000472441 0.0062126 -0.000547244 0.00618898 -0.000614173 0.0061378 -0.000692913 0.00607874 -0.000751969 0.00601575 -0.000811024 0.00599606 -0.000866142 0.00590551 -0.000929134 0.00584646 -0.00096063 0.00579528 -0.00102362 0.00572441 -0.00105906 0.00564961 -0.0011063 0.00557087 -0.0011378 0.00547244 -0.00117323 0.00540157 -0.00119291 0.00532283 -0.00122835 0.00522441 -0.00124409 0.00513386 -0.00126772 0.00505906 -0.00128346 0.00494094 -0.00130709 0.0048189 -0.00129921 0.0047126 -0.00131102 0.00462205 -0.00130709 0.00450787 -0.0013189 0.00438189 -0.00130709 0.00425197 -0.00130315 0.0155197 -0.00482283 0.0586693 -0.305909 -0.230965 0 -0.028 0.14 0.0676535 0 -0.00952756 0.0502441 -0.00140551 0.000291339 -0.00210236 0.00038189 -0.0022874 0.000346457 -0.0025 0.000322835 -0.00270472 0.000287402 -0.0028937 0.000248031 -0.00311417 0.000192913 -0.00336614 0.000149606zm0.564004 -0.200996l-0.00109055 0.00661811 -0.00106299 0.00655512 -0.00101969 0.00646457 -0.00100394 0.00638583 -0.00096063 0.00633465 -0.000937008 0.00625591 -0.000535433 0.00369291 -0.000437008 -0.00167323 -0.00153937 -0.00581496 -0.00155906 -0.00583071 -0.00158268 -0.00585827 -0.0016063 -0.00588976 -0.00163386 -0.00592913 -0.00165354 -0.00594488 -0.00167717 -0.00598425 -0.00170079 -0.0060315 -0.00173228 -0.00606299 -0.00174803 -0.0061063 -0.00177953 -0.0061378 -0.00180709 -0.00623622 -0.0494764 -0.165457 -0.181846 0 -0.10161 0.539252 0.15774 0 0.029 -0.154094 0.00145276 -0.00779528 0.00143701 -0.00775591 0.0014252 -0.00773228 0.00141339 -0.00768898 0.0013937 -0.00766929 0.00137402 -0.00760236 0.00135827 -0.00755906 0.00134252 -0.00750787 0.00131496 -0.00745276 0.00129528 -0.00738583 0.00126772 -0.00730709 0.00125591 -0.00724016 0.00122441 -0.00716929 0.00120472 -0.0070748 0.00117323 -0.007 0.000838583 -0.00501575 0.00114961 0.0042126 0.00155906 0.00561811 0.00157087 0.00563386 0.0016063 0.00566929 0.00161024 0.00567717 0.00164173 0.00574016 0.00166929 0.00579528 0.00169685 0.00584252 0.0017126 0.00589764 0.00174803 0.00597244 0.00177165 0.00604724 0.00179921 0.00612992 0.00182677 0.00621654 0.0018622 0.0063189 0.00189764 0.00643701 0.0019685 0.00666929 0.0547677 0.177173 0.163921 0 0.101614 -0.539252 -0.158492 0 -0.0304843 0.162327 -0.00126378 0.00708661 -0.0012126 0.00693701 -0.0011811 0.00685039 -0.00114961 0.00676772 -0.00112205 0.0066811zm0.243858 -0.19665l-0.0549567 0.288957 -0.000858268 0.00478346 -0.000811024 0.00477559 -0.000767717 0.00478346 -0.000724409 0.00476772 -0.000685039 0.00477559 -0.000633858 0.00477953 -0.000586614 0.00475591 -0.000531496 0.00473228 -0.000484252 0.00469685 -0.000429134 0.00469685 -0.000366142 0.00465748 -0.00030315 0.00459843 -0.000248031 0.00455512 -0.000173228 0.00451575 -0.00011811 0.00447244 -2.75591e-005 0.00451181 0.000192913 0.0105551 0.000590551 0.0104173 0.000996063 0.0101575 0.00139764 0.0098937 0.00179528 0.00962992 0.00221654 0.00936614 0.00261811 0.00909055 0.00303937 0.00880315 0.00344094 0.00850394 0.0038622 0.0082126 0.00427165 0.00789764 0.00468898 0.00759449 0.00509055 0.00724803 0.00549213 0.00690945 0.00588583 0.00654331 0.00625984 0.0061811 0.00662598 0.00579921 0.00699213 0.00542913 0.00733071 0.00502756 0.00766929 0.00464961 0.00798031 0.00424803 0.0082874 0.0038622 0.00859055 0.0034685 0.00888189 0.00308661 0.00915748 0.00270079 0.00944488 0.00231496 0.00969291 0.00193701 0.00997244 0.0015748 0.0102283 0.00119291 0.0104961 0.000838583 0.010748 0.000468504 0.0109488 0.000110236 0.0143228 -0.000240157 0.0139409 -0.000724409 0.0134961 -0.00120866 0.0130787 -0.00169685 0.0126457 -0.00220472 0.0122441 -0.00269291 0.0118268 -0.00320866 0.0114331 -0.00371654 0.0110118 -0.00424409 0.0106063 -0.00474803 0.0101929 -0.00527953 0.00978346 -0.00577953 0.0093622 -0.00629134 0.00894882 -0.00679134 0.00852756 -0.0072874 0.00811417 -0.00776378 0.00768898 -0.00824409 0.00727559 -0.0086811 0.00687795 -0.00912992 0.00649213 -0.00956299 0.0061063 -0.00998819 0.00574803 -0.0103976 0.0053937 -0.010811 0.00506693 -0.0112165 0.00473622 -0.011626 0.00443307 -0.0120118 0.00413386 -0.0124134 0.00387008 -0.0128071 0.00360236 -0.0132165 0.00335039 -0.0136102 0.00311417 -0.0140118 0.00287795 -0.0143189 0.0571063 -0.301602 -0.167362 0 -0.0571417 0.300579 -0.00299606 0.0147047 -0.00325984 0.0132047 -0.00355906 0.011937 -0.00383071 0.010689 -0.00409055 0.00946063 -0.00430315 0.00826378 -0.00448819 0.00711811 -0.00463386 0.00602756 -0.00477559 0.0050315 -0.0049252 0.00415354 -0.0051378 0.0033937 -0.0054252 0.00272047 -0.00583858 0.00211417 -0.0063622 0.00153937 -0.00696063 0.000940945 -0.00755118 0.000322835 -0.00611417 -0.000271654 -0.00543701 -0.000751969 -0.00481496 -0.00116535 -0.00422835 -0.0015 -0.00373228 -0.00180315 -0.00331496 -0.0020748 -0.00294094 -0.00232677 -0.00260236 -0.00256693 -0.0023189 -0.00283465 -0.00204724 -0.00309449 -0.00176772 -0.00333465 -0.00148031 -0.00356299 -0.00119685 -0.00377953 -0.000889764 -0.00394882 -0.000574803 -0.00404724 -0.000259843 -0.00421654 1.9685e-005 -0.00334646 7.08661e-005 -0.00384646 0.000110236 -0.00377559 0.000161417 -0.00371654 0.00019685 -0.00367717 0.000240157 -0.00358661 0.000271654 -0.00352362 0.000314961 -0.00346457 0.000338583 -0.0033937 0.000370079 -0.0032874 0.000393701 -0.00320079 0.000433071 -0.00312992 0.000444882 -0.00304331 0.000464567 -0.00291732 0.000488189 -0.00282677 0.000515748 -0.00278346 0.0585945 -0.307402 -0.166657 0z"
   id="path2073"
   inkscape:export-xdpi="41.084766"
   inkscape:export-ydpi="41.084766" />
  <path
   class="fil8"
   d="M7.20653 3.83526l0.0622205 -0.16148c0.0266654,-0.0681496 0.0459252,-0.12815 0.065185,-0.184441l0.00148031 0c-0.00370472,0.0562913 -0.0059252,0.116291 -0.0059252,0.174811l-0.000740157 0.17111 0.13926 0 0.214811 -0.499256 -0.133331 0 -0.065189 0.188146c-0.02,0.0577795 -0.04,0.117035 -0.0577717,0.172594l-0.00148819 0c0.0029685,-0.0555591 0.00518898,-0.108146 0.00740945,-0.165925l0.00666535 -0.194815 -0.139996 0 -0.0681496 0.189626c-0.0214803,0.06 -0.0422205,0.11852 -0.0622205,0.174815l-0.00148031 0c0.00222047,-0.0511063 0.00370079,-0.117035 0.00518504,-0.176295l0.00370079 -0.188146 -0.127406 0 0.0170394 0.499256 0.14074 0zm0.79778 -0.30889l-0.177039 0 0.0162992 -0.0829606 0.186661 0 0.0207441 -0.107406 -0.313335 0 -0.0948189 0.499256 0.323709 0 0.0207402 -0.107409 -0.19778 0 0.0185197 -0.094811 0.175559 0 0.0207402 -0.106669zm-1.21 1.15778l0.125181 0 0.0355591 -0.188146 0.0229606 0c0.0385197,0 0.0577795,0.0140709 0.0622244,0.0711102 0.00592126,0.0637008 0.0111063,0.10222 0.0155551,0.117035l0.129626 0c-0.00962598,-0.0207402 -0.0140748,-0.0933346 -0.0207402,-0.143701 -0.00518504,-0.0429606 -0.0170354,-0.0733346 -0.0444409,-0.0874055l0.000740157 -0.0029685c0.0644409,-0.0222205 0.110366,-0.0651811 0.110366,-0.139252 0,-0.0518543 -0.0274055,-0.085189 -0.0629606,-0.103709 -0.0385197,-0.0214803 -0.0903701,-0.0259252 -0.136299,-0.0259252 -0.054811,0 -0.109626,0.00518504 -0.144441,0.0133346l-0.0933307 0.489626zm0.20148 -0.40074c0.00740551,-0.00148031 0.0192598,-0.00296063 0.0370315,-0.00296063 0.0362992,0 0.0674134,0.0155551 0.0674134,0.049626 0,0.0437087 -0.0385197,0.0718543 -0.0881535,0.0718543l-0.0392598 0 0.0229685 -0.11852zm0.336291 -0.0985157l-0.0518465 0.272594c-0.00444488,0.0244409 -0.00741339,0.049626 -0.00741339,0.0711063 0,0.107409 0.0629685,0.164567 0.174819,0.163827 0.14889,0 0.21185,-0.0778976 0.24074,-0.229752l0.0525945 -0.277776 -0.126665 0 -0.0540748 0.284441c-0.0155591,0.0844488 -0.0466654,0.11778 -0.0977795,0.11778 -0.0437047,0 -0.0629646,-0.0303701 -0.0637047,-0.0607402 0,-0.0222205 0.00222441,-0.0422205 0.00518504,-0.0577795l0.0540748 -0.283701 -0.125929 0zm0.52148 0.499256l0.0259291 -0.137776c0.0155512,-0.0829646 0.0288858,-0.16222 0.034811,-0.21185l0.00222835 0c0.0140709,0.0666654 0.0288858,0.116299 0.049626,0.186665l0.050374 0.162961 0.132587 0 0.0940748 -0.499256 -0.117776 0 -0.0274055 0.145929c-0.0133346,0.074811 -0.0214803,0.134811 -0.0237087,0.188886l-0.00222047 0c-0.0118504,-0.06 -0.0266654,-0.11778 -0.0459252,-0.183705l-0.045185 -0.15111 -0.15037 0 -0.0940709 0.499256 0.117031 0zm-0.610366 0.554815l-0.190366 0 -0.02 0.1 0.0674055 0 -0.0162992 0.0859252c-0.00962598,0.00370472 -0.0222205,0.00666535 -0.045185,0.00666535 -0.0644409,0 -0.114815,-0.0325906 -0.114815,-0.111106 0,-0.0681535 0.0288937,-0.121484 0.0711142,-0.152594 0.029626,-0.02 0.069626,-0.0311102 0.115551,-0.0311102 0.0437087,0 0.0844488,0.0111102 0.105929,0.02l0.0370394 -0.106669c-0.020748,-0.00962598 -0.0718543,-0.0214803 -0.13852,-0.0214803 -0.0896339,0 -0.16889,0.025189 -0.226669,0.0718543 -0.0637047,0.0525945 -0.103705,0.131106 -0.103705,0.228886 0,0.0696299 0.0274055,0.125189 0.0681535,0.15778 0.0429606,0.0340748 0.1,0.0512362 0.167406,0.0512362 0.0651811,0 0.128886,-0.0156811 0.171106,-0.0290157l0.0518543 -0.27037zm0.148146 0.294071l0.0259291 -0.137772c0.0155512,-0.0829685 0.0288858,-0.16222 0.034811,-0.211854l0.00222835 0c0.0140709,0.0666654 0.0288858,0.116299 0.049626,0.186665l0.050374 0.162961 0.132587 0 0.0940748 -0.499252 -0.117776 0 -0.0274055 0.145925c-0.0133346,0.074815 -0.0214803,0.134815 -0.0237087,0.188886l-0.00222047 0c-0.0118504,-0.06 -0.0266654,-0.11778 -0.0459252,-0.183705l-0.045185 -0.151106 -0.15037 0 -0.0940709 0.499252 0.117031 0zm0.47926 -0.499252l-0.0518465 0.272591c-0.00444488,0.0244409 -0.00741339,0.0496299 -0.00741339,0.0711102 0,0.107406 0.0629685,0.164567 0.174819,0.163827 0.14889,0 0.21185,-0.0779016 0.24074,-0.229756l0.0525945 -0.277772 -0.126665 0 -0.0540748 0.284441c-0.0155591,0.0844449 -0.0466654,0.11778 -0.0977795,0.11778 -0.0437047,0 -0.0629646,-0.030374 -0.0637047,-0.0607402 0,-0.0222205 0.00222441,-0.0422205 0.00518504,-0.0577795l0.0540748 -0.283701 -0.125929 0z"
   id="path2075"
   inkscape:export-xdpi="41.084766"
   inkscape:export-ydpi="41.084766" />
  
 <path
   style="fill:#000000;fill-opacity:1;stroke:#000000;stroke-width:0.93980342"
   d="m 678.14322,351.73053 c -0.33962,-8.61127 -0.61749,-19.18406 -0.61749,-23.49509 v -7.83823 h 5.51213 5.51212 l -0.46244,17.62132 c -0.25434,9.69172 -0.19191,17.3692 0.13873,17.06106 0.48973,-0.4564 12.79455,-33.56495 12.79455,-34.42626 0,-0.14087 2.814,-0.25612 6.25334,-0.25612 h 6.25334 l -0.55079,17.47926 c -0.30293,9.6136 -0.26228,17.1935 0.0903,16.84424 0.35261,-0.34925 3.17858,-8.1092 6.27993,-17.24431 l 5.63882,-16.60929 5.99272,-0.28288 c 4.62689,-0.21841 5.88011,-0.004 5.49868,0.9398 -0.27171,0.67248 -4.8138,11.26684 -10.09352,23.54302 l -9.5995,22.32033 h -6.60025 -6.60025 l 0.4536,-16.48995 c 0.24949,-9.06947 0.17304,-16.15324 -0.16987,-15.7417 -0.34291,0.41153 -2.67536,6.45754 -5.18322,13.43559 -7.47511,20.79926 -6.0358,18.79606 -13.50506,18.79606 h -6.41842 z"
   id="path3724"
   inkscape:connector-curvature="0"
   transform="scale(0.01041667)"
   inkscape:export-xdpi="41.084766"
   inkscape:export-ydpi="41.084766" /><path
   style="fill:#000000;fill-opacity:1;stroke:#000000;stroke-width:0.93980342"
   d="m 734.86068,365.74273 c 0.006,-1.45579 6.72707,-37.80379 7.99362,-43.23096 0.48558,-2.0807 0.72672,-2.11456 15.06043,-2.11456 h 14.56696 l -0.48781,2.34951 -0.97561,4.69902 c -0.47882,2.30623 -0.65161,2.34951 -9.38013,2.34951 -8.46807,0 -8.91278,0.10088 -9.32116,2.11455 -0.23586,1.16301 -0.67489,3.27757 -0.97562,4.69902 l -0.54677,2.58446 h 8.55081 8.5508 l -0.61473,3.05436 c -1.34729,6.69411 -0.80531,6.34368 -9.81125,6.34368 h -8.27036 l -0.92911,4.69901 -0.92911,4.69902 h 9.38577 9.38578 l -0.58253,3.52426 c -0.32039,1.93835 -0.58718,4.0529 -0.59287,4.69902 -0.008,0.89042 -3.64976,1.17475 -15.0472,1.17475 -13.69692,0 -15.03623,-0.14655 -15.02991,-1.64465 z"
   id="path3726"
   inkscape:connector-curvature="0"
   transform="scale(0.01041667)"
   inkscape:export-xdpi="41.084766"
   inkscape:export-ydpi="41.084766" /><path
   style="fill:#000000;fill-opacity:1;stroke:#000000;stroke-width:0.23495086"
   d="m 742.93444,449.24073 c 0,-0.21583 8.59343,-45.98608 8.8157,-46.95411 l 0.12138,-0.52864 7.10279,0.002 7.10279,0.002 2.63628,8.86775 c 2.82584,9.5054 4.14361,14.38762 5.33859,19.77899 0.41361,1.86606 0.86023,3.4289 0.99251,3.47299 0.14912,0.0497 0.29553,-0.92695 0.38535,-2.57049 0.25861,-4.73222 0.88466,-8.90427 3.26236,-21.74042 l 1.44707,-7.81212 h 5.48005 5.48006 l -0.0148,0.52864 c -0.008,0.29075 -1.99485,10.9957 -4.41493,23.78877 l -4.40014,23.26014 -6.33407,0.0586 -6.33406,0.0586 -2.33313,-7.57706 c -3.64219,-11.82836 -5.76686,-19.40793 -7.04702,-25.13965 -0.22753,-1.01873 -0.54699,-0.75748 -0.71822,0.58737 -0.56017,4.39958 -2.14946,13.65843 -4.37576,25.49217 l -1.2487,6.63736 h -5.47204 c -3.10163,0 -5.47205,-0.0919 -5.47205,-0.21227 z"
   id="path3728"
   inkscape:connector-curvature="0"
   transform="scale(0.01041667)"
   inkscape:export-xdpi="41.084766"
   inkscape:export-ydpi="41.084766" /><path
   style="fill:#000000;fill-opacity:1;stroke:#000000;stroke-width:0.23495086"
   d="m 711.26139,450.14083 c -5.31197,-0.68964 -9.32896,-3.36526 -11.3187,-7.53913 -1.76588,-3.70425 -2.06582,-8.33107 -0.9419,-14.52922 0.91839,-5.06471 4.96765,-26.19371 5.03226,-26.25832 0.0354,-0.0354 2.7055,-0.0361 5.93352,-0.002 l 5.86913,0.0628 -2.66487,13.8621 c -3.51429,18.28058 -3.64179,20.28407 -1.44935,22.77481 1.17464,1.33446 2.59869,1.89706 4.78099,1.88882 4.37824,-0.0165 7.03625,-2.57689 8.6524,-8.33455 0.30832,-1.09839 1.76522,-8.36672 3.23756,-16.15183 l 2.67699,-14.15475 5.93251,-0.001 c 3.9812,-7e-4 5.93251,0.08 5.93251,0.24526 0,0.35961 -5.12959,27.3393 -5.51664,29.0154 -1.4634,6.33723 -4.06557,11.448 -7.35312,14.44182 -1.80986,1.64815 -5.34309,3.49487 -7.80592,4.07992 -3.37607,0.80199 -7.64486,1.03467 -10.99737,0.59941 z"
   id="path3730"
   inkscape:connector-curvature="0"
   transform="scale(0.01041667)"
   inkscape:export-xdpi="41.084766"
   inkscape:export-ydpi="41.084766" /><path
   style="fill:#000000;fill-opacity:1;stroke:#000000;stroke-width:0.23495086"
   d="m 652.47836,449.27842 c 0,-0.61292 8.78856,-46.26794 8.9381,-46.43182 0.77135,-0.84532 13.99761,-1.63495 18.51953,-1.10564 9.23419,1.08089 14.12867,5.24378 14.12867,12.01681 0,5.73759 -3.11675,10.28453 -8.60716,12.55676 -0.88726,0.3672 -1.71072,0.75143 -1.82989,0.85385 -0.1221,0.10493 0.26736,0.6123 0.89218,1.16229 2.18715,1.92521 2.71723,3.65869 3.68436,12.04872 0.38552,3.34439 0.83942,6.75411 1.00868,7.57716 l 0.30774,1.49645 h -6.04924 -6.04924 l -0.25083,-1.16955 c -0.13795,-0.64326 -0.51848,-3.5772 -0.84562,-6.51989 -0.66043,-5.94075 -0.9973,-7.43103 -1.93042,-8.53997 -1.01484,-1.20607 -2.20386,-1.61575 -4.70671,-1.62169 -1.19532,-0.003 -2.1735,0.0741 -2.17374,0.17105 -2.4e-4,0.0969 -0.74014,4.08815 -1.64421,8.8694 -0.90408,4.78125 -1.64397,8.71961 -1.64422,8.75192 -2.4e-4,0.0323 -2.64364,0.0587 -5.87421,0.0587 -3.23058,0 -5.87377,-0.0786 -5.87377,-0.17458 z m 24.50204,-27.21658 c 2.9504,-1.15617 4.63487,-3.40366 4.628,-6.1749 -0.005,-2.08323 -0.60496,-3.13648 -2.34565,-4.119 -1.22773,-0.693 -1.4388,-0.73279 -4.22911,-0.79735 -1.61529,-0.0374 -3.08024,0.0286 -3.25545,0.14672 -0.28158,0.18974 -2.35727,9.94307 -2.37649,11.1668 -0.006,0.41146 0.1876,0.43122 3.22369,0.32809 2.39818,-0.0815 3.5203,-0.22327 4.35501,-0.55036 z"
   id="path3732"
   inkscape:connector-curvature="0"
   transform="scale(0.01041667)"
   inkscape:export-xdpi="41.084766"
   inkscape:export-ydpi="41.084766" /><path
   style="fill:#000000;fill-opacity:1;stroke:#000000;stroke-width:0.23495086"
   d="m 671.27443,531.41509 c -9.10217,-0.56541 -16.08565,-5.19778 -18.57702,-12.32273 -0.79965,-2.28689 -1.15891,-4.67335 -1.15791,-7.69173 0.002,-6.19436 1.49802,-11.27077 4.73572,-16.07009 6.49098,-9.62172 19.3757,-14.11517 34.1738,-11.91786 2.60718,0.38713 5.61272,1.26285 5.61272,1.63538 0,0.12922 -0.74009,2.38078 -1.64465,5.00346 -1.48941,4.31837 -1.68902,4.75537 -2.11456,4.62935 -5.95328,-1.76306 -11.35027,-2.0809 -15.68513,-0.92374 -7.4174,1.98003 -11.93597,8.36282 -11.91586,16.83193 0.009,3.7762 0.71774,5.88885 2.65295,7.90781 2.02861,2.11638 6.09273,3.34939 9.82705,2.98142 3.0597,-0.30149 2.86371,-0.0655 3.70092,-4.4561 0.40139,-2.10502 0.7298,-4.00169 0.7298,-4.21483 0,-0.34095 -0.38169,-0.38752 -3.17631,-0.38752 -3.17445,0 -3.17624,-2.4e-4 -3.05099,-0.52864 0.14778,-0.62335 1.76324,-8.67821 1.76324,-8.7917 0,-0.0427 4.07253,-0.0777 9.05008,-0.0777 h 9.05009 l -0.12283,0.52864 c -0.0676,0.29075 -1.18249,6.07331 -2.47762,12.85014 -1.29513,6.77682 -2.37845,12.34283 -2.40737,12.3689 -0.20844,0.18795 -3.68351,1.11528 -5.97433,1.59427 -4.77061,0.99749 -8.71726,1.31686 -12.99179,1.05134 z"
   id="path3734"
   inkscape:connector-curvature="0"
   transform="scale(0.01041667)"
   inkscape:export-xdpi="41.084766"
   inkscape:export-ydpi="41.084766" /><path
   style="fill:#000000;fill-opacity:1;stroke:#000000;stroke-width:0.23495086"
   d="m 698.52873,530.8471 c 0,-0.15165 8.32468,-44.42462 8.71103,-46.32768 l 0.25041,-1.23349 h 7.10771 7.10771 l 2.50466,8.39949 c 2.85174,9.5634 4.24012,14.66865 5.31931,19.55966 0.41344,1.87373 0.804,3.59181 0.86793,3.81795 0.23094,0.81702 0.55445,0.38601 0.55445,-0.73869 0,-3.37089 1.13393,-11.30573 3.21452,-22.49415 l 1.58889,-8.54426 h 5.54983 5.54982 l -0.74055,3.93543 c -0.40731,2.16448 -2.42601,12.89706 -4.486,23.85018 l -3.74546,19.91476 -6.33087,-0.0614 -6.33087,-0.0614 -2.07266,-6.6961 c -3.78683,-12.23405 -5.97713,-20.04804 -7.36231,-26.26537 -0.19555,-0.87774 -0.5099,-0.38594 -0.67995,1.06378 -0.34314,2.92537 -2.09216,13.22186 -3.77098,22.19973 -0.97016,5.18817 -1.76393,9.51908 -1.76393,9.62424 0,0.10516 -2.48461,0.19119 -5.52135,0.19119 -3.03674,0 -5.52134,-0.0602 -5.52134,-0.13385 z"
   id="path3736"
   inkscape:connector-curvature="0"
   transform="scale(0.01041667)"
   inkscape:export-xdpi="41.084766"
   inkscape:export-ydpi="41.084766" /><path
   style="fill:#000000;fill-opacity:1;stroke:#000000;stroke-width:0.23495086"
   d="m 763.96254,531.77586 c -9.97536,-1.03859 -14.96294,-7.7513 -13.7804,-18.54683 0.22333,-2.03882 5.34594,-29.69276 5.53537,-29.88219 0.038,-0.038 2.71023,-0.0408 5.93825,-0.006 l 5.86913,0.0628 -2.66724,13.86211 c -2.21828,11.52879 -2.69141,14.37647 -2.81085,16.918 -0.13301,2.83019 -0.10442,3.14702 0.38709,4.28956 1.0165,2.36292 2.81881,3.42289 5.81133,3.41773 1.69498,-0.003 2.12076,-0.0957 3.45566,-0.75285 2.48635,-1.22402 3.98399,-3.41988 5.14482,-7.54336 0.30922,-1.0984 1.76612,-8.36682 3.23756,-16.15205 l 2.67535,-14.15497 5.93251,-8.2e-4 c 4.28592,-5.9e-4 5.93251,0.0736 5.93251,0.26713 0,1.13009 -5.57065,29.31106 -6.23563,31.545 -1.59449,5.35652 -3.31318,8.54084 -6.09931,11.30053 -2.60082,2.57614 -5.40596,4.02234 -9.38448,4.83818 -2.09231,0.42906 -7.097,0.73032 -8.94167,0.53827 z"
   id="path3738"
   inkscape:connector-curvature="0"
   transform="scale(0.01041667)"
   inkscape:export-xdpi="41.084766"
   inkscape:export-ydpi="41.084766" /><path
   style="fill:#000000;fill-opacity:1;stroke:#000000;stroke-width:0.46990171"
   d="m 327.41267,477.96512 c -12.61862,-1.84036 -21.31652,-7.3124 -25.68886,-16.16143 -2.71567,-5.49613 -3.39362,-9.35955 -3.09219,-17.62131 0.26781,-7.34021 1.0285,-11.11434 3.56193,-17.67232 8.20465,-21.23842 30.71148,-34.20793 57.1332,-32.92289 5.49612,0.26731 13.07331,1.41741 14.28924,2.1689 0.58296,0.36029 -0.12643,2.2943 -5.19585,14.16553 l -0.92094,2.1566 -2.44157,-0.69859 c -3.69721,-1.05785 -15.17915,-1.00773 -19.12308,0.0835 -12.10988,3.35059 -19.26948,13.38914 -21.19939,29.7239 -1.11943,9.47491 1.88575,17.30539 7.70042,20.06463 2.25893,1.07193 6.29097,1.79932 8.09643,1.46061 l 1.46862,-0.27551 1.29791,-7.83495 c 0.71385,-4.30922 1.40177,-8.20499 1.52873,-8.65727 0.2069,-0.73714 -0.18624,-0.82233 -3.79502,-0.82233 -2.76347,0 -4.02583,-0.17261 -4.02583,-0.55048 0,-0.30276 0.56516,-3.79178 1.25592,-7.75338 l 1.25592,-7.2029 h 15.47653 15.47653 l -0.24125,1.05728 c -0.1327,0.5815 -1.90013,10.85754 -3.92763,22.83563 -2.72122,16.07642 -3.87092,21.87628 -4.39123,22.15239 -0.87996,0.46695 -8.25826,1.71369 -13.8621,2.34234 -4.99,0.55979 -16.68553,0.53829 -20.63644,-0.0379 z"
   id="path3740"
   inkscape:connector-curvature="0"
   transform="scale(0.01041667)"
   inkscape:export-xdpi="41.084766"
   inkscape:export-ydpi="41.084766" /><path
   style="fill:#000000;fill-opacity:1;stroke:#000000;stroke-width:0.46990171"
   d="m 378.52098,477.19297 c 0.1246,-0.45228 3.36331,-19.27184 7.19714,-41.82125 l 6.97059,-40.99893 h 11.51354 11.51355 l 3.45222,9.98541 c 6.81101,19.70062 10.36362,30.28278 12.02871,35.83001 2.08303,6.93958 2.10601,7.00374 2.40297,6.70678 0.13272,-0.13271 0.55408,-4.12778 0.93637,-8.87791 0.38229,-4.75014 1.01555,-11.49126 1.40725,-14.98028 0.66745,-5.94518 3.74629,-26.02915 4.26807,-27.84168 0.2166,-0.75238 1.15334,-0.82233 11.01281,-0.82233 7.89222,0 10.77608,0.1466 10.77608,0.54779 0,0.53377 -13.37879,79.23255 -13.90642,81.80249 l -0.26531,1.29223 h -11.3741 -11.3741 l -5.09985,-14.12577 c -6.36031,-17.61705 -8.72719,-24.94431 -10.42626,-32.27703 -0.73359,-3.16596 -1.47045,-5.75629 -1.63746,-5.75629 -0.16702,0 -0.44951,1.53305 -0.62776,3.40679 -0.78612,8.26357 -2.7592,22.76474 -4.79523,35.24263 l -2.20439,13.50967 h -10.99748 c -10.24683,0 -10.98202,-0.0561 -10.77094,-0.82233 z"
   id="path3742"
   inkscape:connector-curvature="0"
   transform="scale(0.01041667)"
   inkscape:export-xdpi="41.084766"
   inkscape:export-ydpi="41.084766" /><path
   style="fill:#000000;fill-opacity:1;stroke:#000000;stroke-width:0.46990171"
   d="m 494.65845,478.66593 c -12.9393,-1.3515 -20.43086,-6.96743 -22.80739,-17.09719 -1.27056,-5.41569 -0.73722,-11.55639 2.81609,-32.42322 1.82639,-10.72551 3.89283,-22.93708 4.5921,-27.13682 l 1.2714,-7.63591 h 12.62258 12.62258 l -0.2626,1.29223 c -0.14443,0.71073 -2.28882,13.13376 -4.76531,27.60673 -4.81933,28.16492 -5.23576,32.15851 -3.67992,35.29054 3.06443,6.1689 11.2987,4.82265 14.69494,-2.40252 1.4586,-3.10305 2.15031,-6.58777 7.15784,-36.05986 l 4.37123,-25.72712 h 12.62244 12.62244 l -0.27665,1.29223 c -0.15215,0.71073 -2.27022,12.9223 -4.70681,27.13683 -2.43659,14.21452 -4.88582,27.32478 -5.44275,29.1339 -1.2477,4.05308 -4.12765,9.92213 -6.36315,12.96749 -6.22963,8.48646 -16.6029,13.32804 -29.49232,13.76513 -3.14442,0.10663 -6.56296,0.10553 -7.59674,-0.002 z"
   id="path3744"
   inkscape:connector-curvature="0"
   transform="scale(0.01041667)"
   inkscape:export-xdpi="41.084766"
   inkscape:export-ydpi="41.084766" /><path
   style="fill:#ff0000;fill-opacity:1;stroke:#000000;stroke-width:0.46990171"
   d="m 200.34435,467.41685 c -2.35093,-0.69603 -3.83855,-1.87981 -3.83855,-3.05454 0,-0.45099 -0.77001,-1.59 -1.71114,-2.53113 l -1.71115,-1.71114 0.26886,-4.797 c 0.26028,-4.64386 2.78559,-20.78811 5.27603,-33.72952 2.55371,-13.27017 6.13892,-25.35415 9.16077,-30.87644 1.8475,-3.37623 2.40402,-8.27465 1.25242,-11.02366 -0.70733,-1.68848 -0.69363,-1.80774 0.35082,-3.05437 2.34576,-2.79983 4.97784,-7.40838 6.66335,-11.66695 0.97138,-2.45425 2.48737,-5.30488 3.36888,-6.33472 l 1.60273,-1.87244 -2.64029,-2.85183 c -4.43517,-4.79051 -5.77816,-8.38703 -4.97195,-13.3148 1.34949,-8.24846 8.54953,-16.98703 17.66277,-21.43702 4.93278,-2.40867 5.67436,-2.34658 2.23278,0.18696 -10.71161,7.88545 -13.59475,20.62878 -6.51908,28.81412 l 1.55625,1.80032 -2.41135,1.17695 c -1.40889,0.68766 -2.85236,1.84291 -3.47218,2.77889 -1.26221,1.90604 -1.00613,2.48287 0.48172,1.08512 1.91261,-1.7968 4.27181,-2.45211 8.82797,-2.45211 h 4.28488 l 2.89622,-2.74744 c 7.61338,-7.2223 13.0644,-10.37186 18.64142,-10.77089 4.20176,-0.30063 6.89298,0.56903 12.68384,4.09877 5.49512,3.34946 8.17488,4.72054 9.22628,4.72054 0.67608,0 0.62247,0.19845 -0.33371,1.23532 -1.52484,1.65351 -3.70461,2.5239 -6.32075,2.5239 -1.31859,0 -2.04446,0.18269 -1.86696,0.4699 0.15973,0.25844 1.61007,0.4699 3.22298,0.4699 6.3163,0 9.17221,-3.81633 11.11894,-14.85819 1.08815,-6.17196 2.42592,-9.4146 5.17034,-12.53242 1.9086,-2.16829 5.96224,-4.56414 7.71682,-4.56095 0.81507,10e-4 0.74597,0.1378 -0.44469,0.87729 -4.0515,2.51629 -4.57886,4.10754 -4.69201,14.15781 -0.077,6.84336 -0.25368,8.71328 -1.05256,11.14334 -2.61027,7.93992 -7.40346,11.88184 -14.44776,11.88184 -3.69297,0 -7.28976,-1.1447 -13.28201,-4.22707 -4.68647,-2.4107 -5.84996,-2.82145 -7.99195,-2.82145 -1.55427,0 -3.18639,0.34662 -4.29486,0.91212 -2.0053,1.02302 -4.75328,3.91478 -4.75328,5.00198 0,1.46596 -2.89847,2.06153 -9.47866,1.94766 -5.80658,-0.10049 -6.43429,-0.0247 -8.61256,1.03943 -3.81021,1.86142 -7.57387,6.105 -11.04269,12.45076 -2.21193,4.04646 -3.38532,5.7146 -4.25433,6.04811 l -1.19996,0.46053 0.65025,4.04344 c 1.05444,6.55676 0.69484,9.123 -1.85541,13.24079 -2.94688,4.7582 -4.74898,8.47033 -6.14263,12.65309 -2.15416,6.46526 -1.97579,7.14653 0.57082,2.1803 2.3919,-4.66453 5.96523,-10.16863 6.6016,-10.16863 0.18859,0 0.81794,1.47739 1.39855,3.28309 0.77571,2.41247 1.00172,4.0288 0.85226,6.09508 -0.18023,2.4916 -0.42687,3.06783 -2.16482,5.05766 -4.65123,5.32533 -9.1955,13.41184 -11.41447,20.31202 -0.71048,2.20933 -1.2171,4.09165 -1.12582,4.18293 0.0913,0.0913 0.86709,-0.35948 1.72401,-1.0017 0.85693,-0.64221 2.07512,-1.32529 2.7071,-1.51795 0.95035,-0.28971 0.72211,0.12744 -1.32,2.41245 -2.95127,3.3023 -5.5211,8.30893 -6.20951,12.09755 -0.61899,3.40657 0.0973,6.95643 1.65007,8.17785 0.5764,0.4534 1.19181,1.39732 1.36756,2.09759 0.17576,0.70028 0.77081,1.51473 1.32233,1.8099 2.73702,1.46481 9.41361,-1.00023 14.14047,-5.22074 1.48606,-1.32687 2.70193,-2.16721 2.70193,-1.86742 0,1.14474 -5.52427,5.96276 -8.78298,7.66012 -5.35362,2.78853 -6.6042,3.12462 -8.99395,2.4171 z"
   id="path3746"
   inkscape:connector-curvature="0"
   transform="scale(0.01041667)"
   inkscape:export-xdpi="41.084766"
   inkscape:export-ydpi="41.084766" /><path
   style="fill:#ff0000;fill-opacity:1;stroke:#000000;stroke-width:0.46990171"
   d="m 329.95789,393.91276 c 0,-2.78647 -1.73983,-7.56221 -3.6996,-10.15517 -3.28486,-4.3462 -8.54618,-7.17327 -15.80132,-8.49052 -2.94337,-0.5344 -5.92434,-0.61245 -13.73566,-0.35961 -11.57133,0.37455 -11.57034,0.37494 -8.89128,-3.51973 2.2577,-3.28212 2.86478,-5.26752 2.21381,-7.24 -0.51196,-1.55123 -2.69361,-3.95133 -4.49166,-4.9414 -1.44368,-0.79494 5.58152,-0.69073 11.27764,0.1673 7.58339,1.14232 17.1373,3.98565 13.3922,3.98565 -1.71597,0 -0.55098,0.69165 2.34951,1.3949 3.49878,0.8483 11.29733,3.76753 16.19091,6.06074 2.20817,1.03479 4.01486,1.77552 4.01486,1.64607 0,-0.12945 -0.23605,-0.67644 -0.52456,-1.21552 -0.46052,-0.86048 -0.41748,-0.93754 0.35242,-0.63106 0.83417,0.33206 13.34279,3.41819 15.55063,3.83665 l 1.04648,0.19835 -0.90493,1.75589 c -2.35797,4.5753 -3.7946,9.02853 -4.45377,13.80569 l -0.30107,2.18187 -2.21076,0.32816 c -1.21592,0.1805 -4.13574,0.94316 -6.48848,1.69482 -2.35274,0.75166 -4.41444,1.36666 -4.58154,1.36666 -0.16711,0 -0.30383,-0.84138 -0.30383,-1.86974 z"
   id="path3748"
   inkscape:connector-curvature="0"
   transform="scale(0.01041667)"
   inkscape:export-xdpi="41.084766"
   inkscape:export-ydpi="41.084766" /><path
   style="fill:#ff0000;fill-opacity:1;stroke:#000000;stroke-width:0.16613534"
   d="m 274.87896,493.04776 c -0.67245,-1.73475 -1.26022,-3.7919 -1.57832,-5.524 -0.39473,-2.14936 -0.39299,-6.78186 0.003,-8.97131 1.11944,-6.18366 3.90257,-12.17146 8.60999,-18.52409 1.78424,-2.40782 2.06447,-3.08953 1.893,-4.60507 -0.192,-1.69703 -1.12396,-3.91807 -2.06818,-4.92887 -0.83573,-0.89465 -1.02086,-0.706 -1.53118,1.56027 -1.29418,5.74725 -3.78036,9.57693 -8.07197,12.43397 -1.46789,0.97722 -4.48686,2.5388 -4.63049,2.39516 -0.0301,-0.0301 0.44125,-0.61302 1.04749,-1.29535 4.12491,-4.64266 6.40959,-9.50119 6.63796,-14.11608 0.13928,-2.81439 -0.51781,-4.88591 -1.8792,-5.92429 -0.82272,-0.62752 -2.13412,-0.71524 -3.67876,-0.24607 -1.47178,0.44704 -2.47756,1.2261 -3.42735,2.6548 -1.017,1.52978 -1.49404,2.70464 -3.01272,7.41974 -1.56426,4.85663 -2.16486,6.44946 -3.25166,8.62369 -2.5459,5.09326 -6.12063,8.72177 -11.01335,11.17904 -1.49801,0.75234 -4.28076,1.87795 -4.64262,1.87791 -0.10638,-2e-5 0.39259,-0.37549 1.10881,-0.83439 3.11802,-1.99777 5.60708,-4.28242 6.79365,-6.23573 0.73019,-1.20203 1.37702,-3.07197 1.63817,-4.7359 0.21428,-1.36529 0.11357,-5.77742 -0.14766,-6.46885 -0.14117,-0.37365 -0.17709,-0.31528 -0.35785,0.58147 -0.95994,4.76224 -2.6232,7.89825 -5.77843,10.89498 -0.71397,0.6781 -2.43666,2.11547 -3.82822,3.19415 -4.24349,3.28942 -5.59296,4.73448 -6.85661,7.34233 -1.10864,2.28795 -1.39008,3.8059 -1.39772,7.53844 l -0.007,3.21891 -0.53502,-1.16425 c -1.17374,-2.55416 -1.82487,-5.91061 -1.61931,-8.34708 0.22675,-2.6875 0.82372,-4.61851 2.90188,-9.38665 2.22856,-5.11322 2.49241,-6.11253 2.49145,-9.43636 -0.001,-3.69079 -0.66449,-6.65431 -1.90329,-8.50199 -2.06646,-3.08217 -5.26919,-2.89922 -8.64567,0.49386 -1.68831,1.6966 -2.98826,3.6039 -4.97922,7.30555 -0.87084,1.61908 -1.92614,3.45471 -2.34511,4.07919 -1.5923,2.37328 -3.78901,3.91504 -5.84363,4.10135 -0.87628,0.0795 -1.24349,-0.0155 -4.37848,-1.13257 l -3.42197,-1.21929 1.89009,-0.62036 c 3.22003,-1.05686 5.76018,-2.63565 8.11293,-5.04246 2.91251,-2.97942 5.27335,-7.4532 6.44116,-12.20599 l 0.22452,-0.91374 2.23292,-0.1111 c 2.85034,-0.14182 4.71259,-0.63703 7.38312,-1.96332 2.42145,-1.20259 3.73554,-2.17682 7.21708,-5.35053 3.32444,-3.03049 4.50693,-3.93112 6.40602,-4.87906 1.79845,-0.8977 3.75235,-1.32212 5.44195,-1.18208 l 1.12243,0.093 1.70187,-1.25731 c 2.17494,-1.60682 5.7043,-5.16377 7.14059,-7.19643 3.5503,-5.02444 5.17943,-11.1562 4.64594,-17.4866 -0.21565,-2.559 -0.75723,-5.47533 -1.45762,-7.84904 -0.63425,-2.14957 -0.64207,-2.18531 -0.43657,-1.99362 0.30117,0.28091 1.81506,3.77533 2.51495,5.80509 0.84208,2.44213 1.43242,5.2415 1.67564,7.9458 0.47012,5.22721 -0.81329,10.69356 -3.56252,15.17358 l -0.41819,0.68146 1.7807,0.0981 c 8.30687,0.4577 16.17764,6.97071 19.12094,15.82245 0.82384,2.47763 1.04434,3.78966 1.13613,6.76021 0.1345,4.35268 -0.5395,7.46426 -2.43502,11.24154 -0.60049,1.19661 -0.77335,1.67987 -0.60086,1.67987 0.13318,0 0.8254,-0.18651 1.53827,-0.41446 3.4894,-1.11579 6.28309,-3.51608 9.22513,-7.92606 l 1.18628,-1.77818 0.5356,1.86124 c 0.81721,2.83986 2.27576,6.22327 3.38065,7.84212 0.63743,0.93396 0.52506,1.03615 -1.27746,1.16169 -8.99593,0.62657 -17.46346,6.389 -21.48488,14.62117 -1.74208,3.56616 -2.39976,6.68821 -2.26611,10.75726 0.0443,1.34778 0.0677,2.4505 0.0522,2.4505 -0.0156,0 -0.22395,-0.50464 -0.46304,-1.12141 z m -30.45774,-27.79772 c 3.54935,-2.68502 6.00131,-6.16567 6.90201,-9.79764 0.66001,-2.66145 0.61833,-6.70942 -0.10495,-10.19332 -0.13087,-0.6304 -0.21141,-1.17272 -0.17897,-1.20516 0.14927,-0.14927 2.46612,1.67289 3.43571,2.70213 2.22461,2.36148 3.48468,6.06103 3.48786,10.24034 5e-4,0.74695 0.0707,1.28754 0.16712,1.28754 0.0914,0 0.16613,-0.10196 0.16613,-0.22658 0,-0.48838 2.02728,-6.42365 2.70316,-7.91405 1.77636,-3.9171 4.2219,-6.67268 7.21873,-8.13388 1.19291,-0.58163 3.44155,-1.1668 4.49035,-1.16853 0.38834,-6.7e-4 0.70608,-0.0717 0.70608,-0.15783 0,-0.28338 -1.88917,-2.20445 -2.99044,-3.04093 -0.59393,-0.45113 -1.82749,-1.18164 -2.74123,-1.62336 -4.30641,-2.08181 -8.79109,-2.13971 -13.12268,-0.16942 -0.56204,0.25565 -1.58178,0.53288 -2.33188,0.63394 -1.78488,0.24048 -2.98643,0.71535 -4.43681,1.75348 -1.55457,1.1127 -2.92838,2.83336 -4.94587,6.1946 -1.00929,1.68152 -1.9425,3.00778 -2.58855,3.67877 l -1.01026,1.04928 0.77228,0.56691 c 1.76529,1.29584 3.12828,3.19659 3.93367,5.4857 0.44877,1.27548 0.46677,1.44788 0.45973,4.40099 -0.006,2.60629 -0.0606,3.26291 -0.35756,4.31952 -0.19263,0.6853 -0.402,1.37684 -0.46527,1.53675 -0.16481,0.41652 0.0747,0.35339 0.83164,-0.21925 z"
   id="path3750"
   inkscape:connector-curvature="0"
   transform="scale(0.01041667)"
   inkscape:export-xdpi="41.084766"
   inkscape:export-ydpi="41.084766" /><path
   style="fill:#ff0000;fill-opacity:1;stroke:#000000;stroke-width:0.16613534"
   d="m 229.30711,473.15305 c 0.0636,-0.18275 0.25592,-0.73205 0.42743,-1.22068 1.03998,-2.96289 1.08279,-6.3736 0.10375,-8.26591 -0.5808,-1.12257 -1.89607,-1.89049 -3.24187,-1.89276 l -0.54933,-9.2e-4 0.30013,-0.53784 c 0.47074,-0.84358 2.05176,-2.35138 2.88615,-2.75249 1.64367,-0.79017 3.13389,-0.34041 3.94071,1.18931 0.42957,0.81447 0.45064,0.96527 0.44429,3.1809 -0.006,2.09884 -0.0525,2.46375 -0.47639,3.73804 -0.59068,1.77576 -1.22187,3.04475 -2.35511,4.73486 -1.08924,1.62448 -1.65011,2.31715 -1.47976,1.82749 z"
   id="path3752"
   inkscape:connector-curvature="0"
   transform="scale(0.01041667)"
   inkscape:export-xdpi="41.084766"
   inkscape:export-ydpi="41.084766" /><path
   style="fill:#ff0000;fill-opacity:1;stroke:#000000;stroke-width:0.16613534"
   d="m 263.84293,381.53912 c -1.90965,-0.30127 -2.81,-0.78781 -7.54042,-4.07468 -2.57702,-1.79061 -5.49489,-2.68452 -8.29501,-2.54125 -1.48228,0.0758 -1.54686,0.0663 -0.9529,-0.14126 1.18687,-0.41467 3.08117,-0.72862 4.3964,-0.72862 2.1081,0 3.51821,0.46185 7.84194,2.56844 2.1473,1.0462 4.20323,1.9799 4.56873,2.07491 0.36549,0.095 1.1556,0.17314 1.7558,0.17365 4.04361,0.003 8.18696,-3.5132 10.91203,-9.2615 0.93122,-1.96432 1.07564,-2.97832 0.56637,-3.97657 -0.73744,-1.4455 -3.05734,-2.98416 -5.51417,-3.65723 -1.48471,-0.40675 -4.86235,-0.41199 -6.16206,-0.01 -2.18966,0.67797 -4.6157,3.03124 -6.07386,5.89165 -0.42998,0.84348 -0.89505,1.57706 -1.03348,1.63018 -0.2101,0.0806 -8.10668,-1.21018 -8.30448,-1.35749 -0.20486,-0.15256 1.24545,-2.09427 2.32096,-3.10736 2.72932,-2.57092 6.99585,-4.08721 12.95084,-4.60265 5.92424,-0.51278 13.24452,0.70928 14.84151,2.47766 0.38094,0.42182 0.31547,0.86361 -0.50507,3.4083 -2.58008,8.00139 -6.63662,13.35967 -11.20848,14.80524 -1.43025,0.45223 -3.30026,0.62763 -4.56465,0.42815 z"
   id="path3754"
   inkscape:connector-curvature="0"
   transform="scale(0.01041667)"
   inkscape:export-xdpi="41.084766"
   inkscape:export-ydpi="41.084766" /><path
   style="fill:#ff0000;fill-opacity:1;stroke:#000000;stroke-width:0.16613534"
   d="m 217.50798,392.16207 c 0.17314,-4.02476 0.94755,-7.84356 2.35465,-11.61142 2.83993,-7.60463 8.22989,-12.94254 15.52787,-15.37791 2.45279,-0.81851 2.70698,-0.73326 0.6435,0.21581 -7.71542,3.54862 -11.29721,8.35581 -11.29721,15.16222 v 1.81644 l -0.80543,1.03478 c -1.91102,2.45517 -4.30816,6.42688 -5.78854,9.59075 l -0.73848,1.57829 z"
   id="path3756"
   inkscape:connector-curvature="0"
   transform="scale(0.01041667)"
   inkscape:export-xdpi="41.084766"
   inkscape:export-ydpi="41.084766" /><path
   style="fill:#ff8080;fill-opacity:1;stroke:#000000;stroke-width:0.11747543"
   d="m 219.32599,395.52331 c 0,-0.11802 1.55314,-2.92504 2.20709,-3.98892 3.23462,-5.26223 6.26273,-8.60138 10.11467,-11.15361 1.20105,-0.7958 3.2842,-1.9449 3.5258,-1.9449 0.0798,0 -0.2273,0.41037 -0.68239,0.91193 -2.57536,2.83833 -5.04968,6.9781 -6.13239,10.26006 l -0.49351,1.49596 -0.77474,0.256 c -1.77401,0.58621 -5.09527,2.33166 -6.97157,3.66385 -0.43613,0.30965 -0.79296,0.53449 -0.79296,0.49963 z"
   id="path3758"
   inkscape:connector-curvature="0"
   transform="scale(0.01041667)"
   inkscape:export-xdpi="41.084766"
   inkscape:export-ydpi="41.084766" /><path
   style="fill:#ff0000;fill-opacity:1;stroke:#000000;stroke-width:0.04153384"
   d="m 208.07652,458.14708 c -0.35711,-0.0414 -0.58283,-0.1108 -0.91374,-0.28078 -0.39514,-0.20298 -0.96999,-0.78068 -1.22174,-1.22778 -0.58562,-1.04009 -0.80379,-2.66702 -0.45188,-3.36978 0.17674,-0.35295 0.41064,-0.52032 0.72666,-0.51999 0.33291,3.6e-4 0.58073,0.19634 0.7719,0.61044 0.086,0.18629 0.0913,0.24927 0.081,0.96764 -0.0125,0.86948 0.0317,1.25361 0.19608,1.70433 0.13813,0.37882 0.28001,0.61069 0.51063,0.8345 0.52824,0.51264 1.27332,0.5655 2.09003,0.14828 0.50127,-0.25608 1.25051,-0.88895 1.69993,-1.4359 0.11421,-0.13901 0.21394,-0.23428 0.22162,-0.21171 0.0271,0.0796 -0.48877,0.95388 -0.7713,1.30716 -0.24818,0.31032 -0.72536,0.75266 -1.0359,0.96026 -0.38505,0.25741 -0.89749,0.46072 -1.24941,0.49572 -0.13118,0.013 -0.2759,0.0288 -0.32159,0.0351 -0.0457,0.006 -0.19521,-0.002 -0.33227,-0.0175 z"
   id="path3760"
   inkscape:connector-curvature="0"
   transform="scale(0.01041667)"
   inkscape:export-xdpi="41.084766"
   inkscape:export-ydpi="41.084766" /><path
   style="fill:#d4d6d9;fill-opacity:1;stroke:#000000;stroke-width:0.04153384"
   d="m 209.7448,454.76723 c 0.0419,-0.0547 0.16268,-0.1996 0.26844,-0.32189 0.64213,-0.74248 1.13749,-1.74401 1.30608,-2.64066 0.094,-0.5002 0.0632,-1.39882 -0.0631,-1.83891 -0.27654,-0.96354 -0.90377,-1.7223 -1.76757,-2.13821 -0.5048,-0.24306 -0.8148,-0.31591 -1.45368,-0.34162 -0.83462,-0.0336 -1.53202,0.12502 -2.40896,0.54786 -1.66133,0.80106 -3.3378,2.47359 -4.80039,4.78912 -0.19178,0.3036 -0.35417,0.53556 -0.36087,0.51546 -0.0205,-0.0614 0.39897,-1.31865 0.67484,-2.02276 0.72396,-1.84774 1.64089,-3.48082 2.70512,-4.81792 0.68938,-0.86613 1.87632,-1.9869 2.81964,-2.66244 1.35564,-0.97082 3.1168,-1.7642 4.92094,-2.21682 0.54085,-0.13569 1.32973,-0.29211 1.467,-0.29089 0.0512,4.6e-4 -0.1461,0.12481 -0.4486,0.28277 -1.01497,0.53001 -1.65405,0.93355 -2.28938,1.44559 -0.97761,0.7879 -1.24438,1.52905 -0.7189,1.99726 0.0683,0.0608 0.3152,0.18663 0.54866,0.2795 0.53869,0.21429 0.90466,0.42006 1.28584,0.72298 1.90888,1.51691 2.18025,4.53489 0.62049,6.90056 -0.47686,0.72326 -1.35858,1.4958 -2.05812,1.80331 -0.30215,0.13281 -0.34421,0.13412 -0.2475,0.008 z"
   id="path3762"
   inkscape:connector-curvature="0"
   transform="scale(0.01041667)"
   inkscape:export-xdpi="41.084766"
   inkscape:export-ydpi="41.084766" /><path
   style="fill:#ffffff;fill-opacity:1;stroke:#ffffff;stroke-width:0;stroke-miterlimit:4;stroke-dasharray:none"
   d="m 203.89242,559.23364 c -13.76577,-0.51267 -14.27505,-0.60508 -17.68557,-3.20916 -5.13719,-3.92248 -8.77551,-9.46086 -9.95847,-15.15914 -1.45575,-7.01229 -0.78083,-244.64 0.71007,-250.00355 1.16347,-4.18561 7.53644,-10.6441 13.51062,-13.6919 3.49716,-1.78411 7.3101,-1.81475 196.92328,-1.58215 l 193.35708,0.2372 2.23036,7.04852 c 4.87047,15.39195 6.15452,24.58214 6.17157,44.17077 0.0214,24.63783 -1.52411,31.69057 -17.67927,80.67567 -13.62963,41.32723 -16.51998,51.6396 -18.7771,66.99408 -1.71232,11.64844 -1.91064,33.27193 -0.43166,47.06765 0.87896,8.1988 5.82903,30.67859 7.84148,35.61057 0.51091,1.25209 -0.36692,1.60841 -5.20951,2.11456 -7.00293,0.73195 -330.78017,0.48001 -351.00288,-0.27312 z m 77.90089,-78.30974 c 2.86663,-4.89153 7.9539,-8.62133 13.91446,-10.20155 3.95357,-1.04815 4.61786,-0.96985 7.51843,0.88621 13.29463,8.5072 23.66583,11.10415 39.83401,9.97444 7.78702,-0.5441 21.90737,-2.73914 22.69644,-3.52821 0.39821,-0.39822 8.78697,-48.23047 8.78697,-50.10283 0,-1.04948 -3.56078,-1.28857 -19.19129,-1.28857 h -19.19131 l -0.51373,2.58446 c -0.28255,1.42145 -0.96017,5.33339 -1.50581,8.69318 -0.54564,3.3598 -1.19611,7.03702 -1.44547,8.17158 -0.40553,1.84505 -0.0252,2.09314 3.60137,2.34951 l 4.05477,0.28665 -0.99547,5.16892 c -0.8468,4.3969 -1.27623,5.12167 -2.8751,4.85254 -5.82387,-0.98031 -8.95654,-9.79867 -7.15533,-20.14201 1.98112,-11.37642 6.61463,-18.85626 13.85077,-22.35921 4.49251,-2.17479 9.17979,-2.49423 23.33903,-1.59057 l 3.71995,0.23741 3.46873,-7.98833 c 5.08583,-11.7125 5.10615,-11.84123 2.17285,-13.76321 -1.91244,-1.25307 -5.48665,-1.80639 -14.84864,-2.2987 -6.78145,-0.35661 -12.43564,-0.69477 -12.56486,-0.75147 -0.78515,-0.34449 0.0771,-4.2748 2.24413,-10.2285 1.36847,-3.75986 2.2635,-7.06074 1.98895,-7.33529 -0.27456,-0.27456 -5.93848,-1.92813 -12.5865,-3.67462 -6.64802,-1.74648 -17.62817,-5.07284 -24.40033,-7.3919 -6.77217,-2.31906 -14.86895,-4.71932 -17.99285,-5.3339 l -5.67981,-1.11744 1.77781,-4.01906 c 1.41102,-3.18984 3.55732,-16.56152 3.64797,-22.72732 0.0303,-2.06063 2.78324,-3.89059 8.93019,-5.93617 9.12689,-3.03723 7.92861,-4.70375 -3.38213,-4.70375 -7.72049,0 -11.75137,1.47442 -15.18416,5.55405 -2.40672,2.86022 -5.48527,11.10338 -6.83627,18.30484 l -0.63433,3.38127 -7.7426,-4.2205 c -13.20562,-7.19839 -20.0886,-6.58764 -31.88269,2.82902 -3.55784,2.84066 -6.86794,5.16484 -7.35577,5.16484 -0.48784,0 -2.12318,-1.23621 -3.63409,-2.74712 -2.26698,-2.26698 -2.74712,-3.52918 -2.74712,-7.22171 0,-8.47105 4.99777,-15.14216 15.75328,-21.02775 6.61836,-3.62168 6.45074,-5.14346 -0.48668,-4.41836 -12.80208,1.33809 -23.35433,8.3059 -29.20635,19.28541 -3.92617,7.36625 -3.96135,12.18723 -0.14191,19.44809 l 2.8348,5.38905 -5.18431,9.79519 c -4.26705,8.06213 -5.18431,10.61772 -5.18431,14.44403 0,2.74667 -1.16784,8.01283 -2.85418,12.87035 -4.10872,11.83525 -6.11724,20.24174 -9.3358,39.07437 -3.33847,19.53415 -3.55202,25.63832 -1.06727,30.50676 2.79476,5.47585 4.98381,6.89734 12.03618,7.81589 3.5145,0.45776 7.76525,1.09356 9.44612,1.4129 3.11215,0.59125 7.36014,-1.30319 8.96661,-3.99877 0.40981,-0.68764 1.61645,-1.71657 2.68142,-2.28654 1.85649,-0.99356 1.90845,-0.8681 1.26032,3.04284 -0.3718,2.24352 -1.08236,4.85226 -1.57903,5.79722 -0.49667,0.94495 -0.66076,2.34945 -0.36464,3.12111 0.45349,1.18181 0.97524,1.09196 3.30893,-0.56977 l 2.77055,-1.97281 -0.0789,5.56646 c -0.0558,3.93297 0.52508,6.81417 1.97937,9.81832 4.0673,8.40193 6.66327,8.13168 6.66327,-0.69367 0,-7.24643 1.99158,-10.34638 7.26698,-11.31124 4.59736,-0.84084 11.12759,-4.65997 13.09059,-7.65588 1.0949,-1.67104 1.75629,-2.02416 2.26117,-1.20724 0.55018,0.89022 1.71379,0.77266 5.08119,-0.51337 2.40217,-0.9174 4.53777,-1.49781 4.74577,-1.28981 0.208,0.20801 -0.23559,2.68454 -0.98575,5.50341 -0.75017,2.81887 -1.36895,6.19937 -1.37509,7.51222 -0.0203,4.33283 2.84864,13.52674 5.41358,17.34887 l 2.52271,3.75921 1.07494,-9.11026 c 0.79162,-6.709 1.71026,-10.19435 3.48529,-13.22321 z m 228.18462,0.22863 c 7.91126,-1.50034 16.29421,-5.91029 21.77355,-11.45423 7.64958,-7.73978 9.53506,-12.68038 13.80028,-36.16145 6.97878,-38.41985 7.41198,-41.49978 5.91762,-42.07322 -2.86322,-1.09873 -28.99375,-0.53152 -30.49716,0.66198 -1.03964,0.82533 -2.65497,8.02352 -5.43067,24.19994 -4.57307,26.65127 -7.1573,38.58113 -8.86254,40.91319 -0.87931,1.20254 -1.89272,1.48385 -3.70599,1.02875 -2.22363,-0.55811 -2.49574,-1.07306 -2.49574,-4.72314 0,-2.25321 2.11456,-16.84525 4.69902,-32.42674 2.58446,-15.5815 4.69902,-28.74327 4.69902,-29.24837 0,-0.56298 -6.36451,-0.91838 -16.44656,-0.91838 -9.04561,0 -16.44656,0.23942 -16.44656,0.53203 0,0.29262 -1.93731,12.02842 -4.30514,26.07955 -4.76577,28.28101 -5.97139,41.65351 -4.23081,46.92749 1.77433,5.37626 7.03249,11.51109 11.77808,13.74179 7.46237,3.50772 20.11132,4.74943 29.7536,2.92081 z m -105.87588,-2.0951 c 0.25318,-1.163 1.34187,-8.03532 2.41931,-15.2718 1.07744,-7.23649 2.26678,-13.93849 2.64298,-14.89334 0.48474,-1.23036 2.42098,3.21839 6.64677,15.27181 l 5.96279,17.00789 h 14.39143 c 8.01671,0 14.63444,-0.39318 14.94004,-0.88763 0.56302,-0.911 11.82896,-65.73927 13.86052,-79.75846 0.96844,-6.68286 0.93384,-7.93665 -0.23943,-8.6788 -1.56243,-0.98828 -17.27805,-1.19192 -23.73066,-0.30749 l -4.29542,0.58876 -1.13875,6.69472 c -0.62631,3.6821 -1.81851,11.69465 -2.64933,17.80566 l -1.51057,11.11095 -6.22837,-18.15947 -6.22837,-18.15947 -13.53013,-0.25886 c -9.87754,-0.18897 -13.94241,0.0648 -15.05728,0.93981 -1.14362,0.89763 -3.34539,11.88116 -8.76718,43.73498 -3.98201,23.39498 -6.99837,43.16609 -6.703,43.93581 0.44262,1.15345 3.01741,1.39949 14.64567,1.39949 13.86826,0 14.11649,-0.036 14.56898,-2.11456 z"
   id="path3768"
   inkscape:connector-curvature="0"
   transform="scale(0.01041667)"
   inkscape:export-xdpi="41.084766"
   inkscape:export-ydpi="41.084766" /><path
   style="fill:#ff0000;fill-opacity:1;stroke:#ff0000;stroke-width:0;stroke-miterlimit:4;stroke-dasharray:none;stroke-opacity:1"
   d="m 569.30037,560.6967 c -1.08606,-1.81617 -5.33312,-16.65473 -7.06095,-24.66984 -4.84708,-22.48475 -5.07882,-48.68912 -0.61504,-69.54546 1.38285,-6.46115 4.56058,-18.51413 7.06164,-26.7844 4.61995,-15.27682 12.04881,-36.51731 12.14808,-34.73359 0.03,0.53842 -2.02534,9.2081 -4.56734,19.26597 -7.6945,30.44467 -8.92438,39.26817 -8.96785,64.3374 -0.0297,17.15053 0.31131,23.36263 1.65107,30.07371 2.19329,10.98659 6.78761,27.34801 10.09413,35.94748 l 2.61984,6.81358 h -5.97104 c -3.28408,0 -6.16072,-0.31719 -6.39254,-0.70485 z"
   id="path6023"
   inkscape:connector-curvature="0"
   transform="scale(0.01041667)"
   inkscape:export-xdpi="41.084766"
   inkscape:export-ydpi="41.084766" /></g>
</svg>