<?xml version="1.0" encoding="UTF-8" standalone="no"?>
<!-- Created with Inkscape (http://www.inkscape.org/) -->

<svg
   xmlns:dc="http://purl.org/dc/elements/1.1/"
   xmlns:cc="http://creativecommons.org/ns#"
   xmlns:rdf="http://www.w3.org/1999/02/22-rdf-syntax-ns#"
   xmlns:svg="http://www.w3.org/2000/svg"
   xmlns="http://www.w3.org/2000/svg"
   xmlns:sodipodi="http://sodipodi.sourceforge.net/DTD/sodipodi-0.dtd"
   xmlns:inkscape="http://www.inkscape.org/namespaces/inkscape"
   id="svg2"
   version="1.1"
   inkscape:version="0.92.2 2405546, 2018-03-11"
   width="765"
   height="990"
   xml:space="preserve"
   sodipodi:docname="RAmen.svg"><metadata
     id="metadata8"><rdf:RDF><cc:Work
         rdf:about=""><dc:format>image/svg+xml</dc:format><dc:type
           rdf:resource="http://purl.org/dc/dcmitype/StillImage" /><dc:title></dc:title></cc:Work></rdf:RDF></metadata><defs
     id="defs6"><clipPath
       clipPathUnits="userSpaceOnUse"
       id="clipPath16"><path
         d="M 0,792 612,792 612,0 0,0 0,792 z"
         id="path18" /></clipPath><clipPath
       clipPathUnits="userSpaceOnUse"
       id="clipPath71"><g
         id="use73"
         inkscape:label="Clip"><g
           clip-path="url(#clipPath80)"
           id="g88"><g
             id="g86"
             inkscape:label="Clip"><path
               sodipodi:nodetypes="cccccccc"
               inkscape:connector-curvature="0"
               id="path84"
               style="fill:#373535;fill-opacity:1;fill-rule:evenodd;stroke:none;stroke-width:1.01192081"
               d="m -18.364203,-23.532363 c 14.3117428,-14.700118 17.56526223,-37.648387 22.514409,-49.251011 -8.0256434,-0.119614 -10.1872118,3.23249 -14.471835,5.364502 -5.707945,21.274753 -11.684097,25.851711 -23.099664,29.831742 -0.635631,-6.833347 -0.275462,-11.066517 -0.0079,-15.372646 -6.152994,1.076532 -13.280779,2.552099 -18.27487,5.581699 3.573017,6.265895 2.149803,30.253739 0.936325,37.9722339 11.02157,5.2722361 37.164114,19.0488436 40.380287,7.1543582" /></g></g></g></clipPath><clipPath
       clipPathUnits="userSpaceOnUse"
       id="clipPath80"><g
         id="use82"
         inkscape:label="Clip"><path
           sodipodi:nodetypes="cccccccc"
           inkscape:connector-curvature="0"
           id="path92"
           style="fill:#373535;fill-opacity:1;fill-rule:evenodd;stroke:none;stroke-width:1.01192081"
           d="m -18.364203,-23.532363 c 14.3117428,-14.700118 17.56526223,-37.648387 22.514409,-49.251011 -8.0256434,-0.119614 -10.1872118,3.23249 -14.471835,5.364502 -5.707945,21.274753 -11.684097,25.851711 -23.099664,29.831742 -0.635631,-6.833347 -0.275462,-11.066517 -0.0079,-15.372646 -6.152994,1.076532 -13.280779,2.552099 -18.27487,5.581699 3.573017,6.265895 2.149803,30.253739 0.936325,37.9722339 11.02157,5.2722361 37.164114,19.0488436 40.380287,7.1543582" /></g></clipPath></defs><sodipodi:namedview
     pagecolor="#000000"
     bordercolor="#666666"
     borderopacity="1"
     objecttolerance="10"
     gridtolerance="10"
     guidetolerance="10"
     inkscape:pageopacity="1"
     inkscape:pageshadow="2"
     inkscape:window-width="1366"
     inkscape:window-height="731"
     id="namedview4"
     showgrid="false"
     inkscape:zoom="0.35355339"
     inkscape:cx="38.721383"
     inkscape:cy="731.61207"
     inkscape:window-x="0"
     inkscape:window-y="0"
     inkscape:window-maximized="1"
     inkscape:current-layer="flowRoot40" /><g
     id="g10"
     inkscape:groupmode="layer"
     inkscape:label="Monesvol FINAL"
     transform="matrix(1.25,0,0,-1.25,0,990)"><g
       id="g12"><g
         id="g14"
         clip-path="url(#clipPath16)"><g
   id="g20"
   transform="translate(395,551.125)"
   style="fill:#ffffff"><path
     d="m 0,0 c -6.375,-17.5 -30.533,-26.433 -50.334,-27.958 -8.766,-0.676 -15.432,0.546 -23.916,1.833 -23.545,3.571 -47.811,15.46 -69.083,15.167 -16.943,-0.234 -29.792,-6.917 -41.542,-16.042 7.375,20.25 26.312,25.165 45.542,27.042 9.414,0.918 18.02,0.081 28.083,-1.917 22.667,-4.5 47.156,-15.237 67.916,-15.083 C -25.895,-16.829 -11,-8.75 0,0"
     style="fill:#ffffff;fill-opacity:1;fill-rule:evenodd;stroke:none"
     id="path22" /></g><g
   id="g24"
   transform="matrix(0.80895328,0,0,0.78953196,339.23401,443.68097)"
   style="fill:#ffffff"><path
     d="m 35.341334,-4.0192814 c 1.882619,-4.4209686 1.293552,-12.1075996 0,-16.8289676 -2.365098,-0.210361 -2.483669,4.99568 -4.520177,5.92548 -4.099504,0.841448 -10.091088,0.841448 -14.768308,-0.491406 0.04667,-3.022482 -0.420672,-7.537694 2.1021,-8.799867 2.522772,-1.367355 8.435519,-1.156992 12.561513,-0.525905 0.65466,-2.371202 0.840714,-7.573036 -0.105325,-10.93883 -4.887871,0.736269 -8.514356,0.420724 -12.062005,-0.631085 -1.813242,-0.841449 -1.813242,-5.118531 -1.707917,-9.325773 4.2042,-1.297514 9.249745,-1.122492 13.349249,0.139686 2.831812,0.18091 2.706935,6.03066 5.781563,6.13584 1.103713,-4.838328 1.024877,-11.675097 0,-15.146071 -8.9735,-5.238016 -23.847765,-1.984134 -28.2235133,-0.701768 -2.601609,4.312424 -2.522772,6.276365 -2.680446,11.535417 2.838119,5.644435 3.258791,7.853238 3.258791,14.304623 0,6.626405 -0.736018,8.660187 -3.258791,12.867428 0,4.462201 0.930903,9.048936 3.153466,12.6217258 7.2529703,2.1036207 16.8710393,2.90972887 27.1198003,-0.1405257"
     style="fill:#ffffff;fill-opacity:1;fill-rule:evenodd;stroke:none;stroke-width:0.72848862"
     id="path26"
     inkscape:connector-curvature="0" /></g><g
   id="g28"
   transform="translate(279.3335,470.1665)"
   style="fill:#ffffff"><path
     d="m 0,0 c 13.333,0.667 29.833,1.667 44.333,-0.167 1.709,6.375 2.209,9.125 2.209,9.125 C 25.041,17.125 34.833,54.833 62.333,47.5 88.157,40.614 79.667,4.708 58.5,6.333 c 0,0 -1.292,-4.833 -1.958,-9 5.125,-1.375 8.419,-2.694 12.125,-3.875 8.692,-2.77 18.905,-6.393 28.75,-10.625 1.635,2.892 14.041,29.667 26.875,33.5 11.166,2.5 17.375,-3.875 22.5,-5.375 5.5,3 11.125,12.875 20,13 7.25,0.25 13,-1.875 12.75,-6.875 -0.375,-4.125 -5.375,-4.75 -12,-4.625 -5.5,-0.125 -10.875,-10 -18.375,-13 -8,-1.75 -12.875,4.5 -20.375,4.875 -4.875,-0.5 -18.245,-23.545 -18.75,-26.75 11.254,-5.662 22.49,-13.208 31.291,-20.75 14.151,8.483 47.334,28.334 59,8 2.334,-5.333 -2.5,-15 -1,-18 5.167,-3.333 19.574,9.428 31,11 9.078,1.25 25.5,0.834 23,-10 -2.666,-5.333 -9.059,-0.51 -16,-1 -17.033,-1.201 -35.618,-21.402 -47,-8 -4.91,5.783 0.5,18.5 -2,22 -6.833,4.667 -22.374,-2.489 -30,-7 -8.153,-4.822 -15.01,-8.751 -21.333,-14.166 8.673,-1.696 12.718,-2.691 17.333,-5.834 13.104,-8.922 6.669,-33.624 21,-39 9.315,-3.494 17.323,5.335 30,4 7.641,-0.804 23.667,-10 21,-18 -6,-8 -15.333,8.167 -23,7 -12.166,-4.333 -34.401,-8.674 -44,5 -5.914,8.426 -3.333,26.334 -13.166,32.334 -5.257,3.208 -9.5,5.333 -20.667,5.666 -1.269,0.039 -16.5,-8.5 -24.167,-12 7.334,-5.333 12.381,-6.536 15,-15 2.417,-7.807 -3.126,-15.275 -1,-25 1.646,-7.526 8.767,-10.899 15,-12 6.3,-1.112 17.917,2.946 19,-5 1.258,-9.218 -16.418,-7.163 -22,-6 -12.014,2.504 -22.592,9.658 -23.333,24.167 -0.278,5.42 2.171,13.389 1.333,17.833 -1.161,6.155 -16.666,15.167 -18.166,14.834 -5.765,-1.284 -17.5,-6.5 -24.834,-7.834 1.193,-2.957 4.667,-8.166 3.834,-13 -0.167,-4.333 -3.334,-15.666 -3.167,-21.5 0.958,-3.416 6.833,-14.833 7.833,-20.333 1.167,-5.833 0.167,-12 -5,-11.667 -5.5,1 -5.333,6.334 -6,11.5 -1.333,5 -6.333,11.501 -8,17.667 -1.333,6.167 2.834,19.167 2.834,23.167 0.333,3.333 -2.917,8.719 -4.044,11.663 -16.165,-2.663 -34.195,-2.65 -50.999,-0.579 -1.009,-2.527 -4.249,-7.293 -4.291,-10.751 -0.041,-5.958 3,-17.084 2,-21.5 -2.167,-6.542 -6.583,-12.084 -8.166,-17.5 -1.417,-4.417 1.333,-11.667 -5,-12.5 -5.667,-0.333 -6.834,7.5 -6,14.333 0.5,6.167 6.999,14 7.666,17.667 0.538,4 -2.125,14.917 -2.166,19.667 0.333,5.5 2.774,9.026 4.484,12.353 -11.171,2.081 -21.401,5.088 -29.651,8.813 -6.833,-3 -17.089,-4.761 -19.167,-13.5 -1.324,-5.571 2.441,-11.015 1.334,-20.833 -1.515,-13.423 -12.474,-21.997 -29.334,-23.167 -7.668,-0.532 -16.876,0.398 -16,7 1.07,8.05 18.982,3.279 27,8 10.629,6.259 4.167,19.834 6,34 3.5,10.167 9.828,11.673 15.834,15.667 -6.704,3.61 -22.667,11.167 -22.667,11.167 -11.333,0.666 -16.785,-3.025 -22.167,-5.834 -10.999,-5.74 -7.294,-22.288 -14,-32 -5.618,-8.138 -17.528,-11.275 -28,-10 -4.884,0.595 -9.809,5.229 -15,5 -9.215,-0.405 -15.5,-13.166 -22,-9 -7.166,6.5 11.563,19.139 18,20 14.038,1.878 25.542,-10.939 36,-1 3.934,3.739 4.145,11.877 6,18 4.366,14.401 8.924,20.514 28,23 -5.833,5.5 -14.188,9.314 -22,14 -7.835,4.702 -20.833,13.167 -27,9 -3.666,-3.5 1.874,-24.868 -10,-27 -11.906,-2.137 -23.498,10.803 -39,12 -7.761,0.6 -14,-4.666 -17,2 -2.833,11 14.233,10.158 23,9 11.339,-1.497 23,-13 30,-11 3,2.5 -1.748,10.305 0,17 6.235,23.875 46.771,2.034 56,-7 12.74,8.525 20.584,14 35.084,21.625 -1.584,3.214 -12,24.875 -19.75,28.25 -3.062,-0.709 -14,-6.5 -19.375,-5.5 -5.5,1.875 -13.875,11.875 -17.75,13.125 -2.48,0.768 -13.375,-2 -13.542,6.667 0.375,6.75 12.299,6.16 15.333,5.5 6.375,-1.125 16.867,-12.942 17.834,-13.542 5.5,2.75 12,6.75 21.5,5.375 9.25,-1.875 27.118,-32.773 27.778,-34.268 12.465,5.405 25.653,9.814 39.888,13.768 -1,6.834 -2,9.5 -2,9.5 -26,-2.333 -29.667,39.417 -2.166,42 C 13.296,51.976 16,17 -2.5,9.167 c 0,0 0.333,-2.5 2.5,-9.167 m 15.333,-11.167 c -41.479,-2.586 -75.265,-19.458 -101,-39 30.975,-20.026 74.823,-45.199 126,-38 35.58,5.005 67.054,21.278 90,39 -29.079,19.606 -68.815,40.881 -115,38 m 39.084,25.75 c 15.75,-3.5 21.125,19.75 8,25.125 2.25,-2.75 1.958,-5.625 1.5,-7.625 -4.25,-8.5 -17.875,-0.875 -11.25,8.25 -13.5,-5 -11.686,-22.764 1.75,-25.75 M -10.5,15.667 c 14.683,1.878 13.667,22.416 1.167,24.666 6.25,-6 0.25,-12 -2.886,-12.281 -3.614,-0.469 -10.406,3.156 -6.448,11.781 -13.5,-7.666 -6.166,-26 8.167,-24.166"
     style="fill:#ffffff;fill-opacity:1;fill-rule:evenodd;stroke:none"
     id="path30" /></g><g
   id="g32"
   transform="translate(279.3335,470.1665)"
   style="fill:#ffffff"><path
     d="m 0,0 c 13.333,0.667 29.833,1.667 44.333,-0.167 1.709,6.375 2.209,9.125 2.209,9.125 C 25.041,17.125 34.833,54.833 62.333,47.5 88.157,40.614 79.667,4.708 58.5,6.333 c 0,0 -1.292,-4.833 -1.958,-9 5.125,-1.375 8.419,-2.694 12.125,-3.875 8.692,-2.77 18.905,-6.393 28.75,-10.625 1.635,2.892 14.041,29.667 26.875,33.5 11.166,2.5 17.375,-3.875 22.5,-5.375 5.5,3 11.125,12.875 20,13 7.25,0.25 13,-1.875 12.75,-6.875 -0.375,-4.125 -5.375,-4.75 -12,-4.625 -5.5,-0.125 -10.875,-10 -18.375,-13 -8,-1.75 -12.875,4.5 -20.375,4.875 -4.875,-0.5 -18.245,-23.545 -18.75,-26.75 11.254,-5.662 22.49,-13.208 31.291,-20.75 14.151,8.483 47.334,28.334 59,8 2.334,-5.333 -2.5,-15 -1,-18 5.167,-3.333 19.574,9.428 31,11 9.078,1.25 25.5,0.834 23,-10 -2.666,-5.333 -9.059,-0.51 -16,-1 -17.033,-1.201 -35.618,-21.402 -47,-8 -4.91,5.783 0.5,18.5 -2,22 -6.833,4.667 -22.374,-2.489 -30,-7 -8.153,-4.822 -15.01,-8.751 -21.333,-14.166 8.673,-1.696 12.718,-2.691 17.333,-5.834 13.104,-8.922 6.669,-33.624 21,-39 9.315,-3.494 17.323,5.335 30,4 7.641,-0.804 23.667,-10 21,-18 -6,-8 -15.333,8.167 -23,7 -12.166,-4.333 -34.401,-8.674 -44,5 -5.914,8.426 -3.333,26.334 -13.166,32.334 -5.257,3.208 -9.5,5.333 -20.667,5.666 -1.269,0.039 -16.5,-8.5 -24.167,-12 7.334,-5.333 12.381,-6.536 15,-15 2.417,-7.807 -3.126,-15.275 -1,-25 1.646,-7.526 8.767,-10.899 15,-12 6.3,-1.112 17.917,2.946 19,-5 1.258,-9.218 -16.418,-7.163 -22,-6 -12.014,2.504 -22.592,9.658 -23.333,24.167 -0.278,5.42 2.171,13.389 1.333,17.833 -1.161,6.155 -16.666,15.167 -18.166,14.834 -5.765,-1.284 -17.5,-6.5 -24.834,-7.834 1.193,-2.957 4.667,-8.166 3.834,-13 -0.167,-4.333 -3.334,-15.666 -3.167,-21.5 0.958,-3.416 6.833,-14.833 7.833,-20.333 1.167,-5.833 0.167,-12 -5,-11.667 -5.5,1 -5.333,6.334 -6,11.5 -1.333,5 -6.333,11.501 -8,17.667 -1.333,6.167 2.834,19.167 2.834,23.167 0.333,3.333 -2.917,8.719 -4.044,11.663 -16.165,-2.663 -34.195,-2.65 -50.999,-0.579 -1.009,-2.527 -4.249,-7.293 -4.291,-10.751 -0.041,-5.958 3,-17.084 2,-21.5 -2.167,-6.542 -6.583,-12.084 -8.166,-17.5 -1.417,-4.417 1.333,-11.667 -5,-12.5 -5.667,-0.333 -6.834,7.5 -6,14.333 0.5,6.167 6.999,14 7.666,17.667 0.538,4 -2.125,14.917 -2.166,19.667 0.333,5.5 2.774,9.026 4.484,12.353 -11.171,2.081 -21.401,5.088 -29.651,8.813 -6.833,-3 -17.089,-4.761 -19.167,-13.5 -1.324,-5.571 2.441,-11.015 1.334,-20.833 -1.515,-13.423 -12.474,-21.997 -29.334,-23.167 -7.668,-0.532 -16.876,0.398 -16,7 1.07,8.05 18.982,3.279 27,8 10.629,6.259 4.167,19.834 6,34 3.5,10.167 9.828,11.673 15.834,15.667 -6.704,3.61 -22.667,11.167 -22.667,11.167 -11.333,0.666 -16.785,-3.025 -22.167,-5.834 -10.999,-5.74 -7.294,-22.288 -14,-32 -5.618,-8.138 -17.528,-11.275 -28,-10 -4.884,0.595 -9.809,5.229 -15,5 -9.215,-0.405 -15.5,-13.166 -22,-9 -7.166,6.5 11.563,19.139 18,20 14.038,1.878 25.542,-10.939 36,-1 3.934,3.739 4.145,11.877 6,18 4.366,14.401 8.924,20.514 28,23 -5.833,5.5 -14.188,9.314 -22,14 -7.835,4.702 -20.833,13.167 -27,9 -3.666,-3.5 1.874,-24.868 -10,-27 -11.906,-2.137 -23.498,10.803 -39,12 -7.761,0.6 -14,-4.666 -17,2 -2.833,11 14.233,10.158 23,9 11.339,-1.497 23,-13 30,-11 3,2.5 -1.748,10.305 0,17 6.235,23.875 46.771,2.034 56,-7 12.74,8.525 20.584,14 35.084,21.625 -1.584,3.214 -12,24.875 -19.75,28.25 -3.062,-0.709 -14,-6.5 -19.375,-5.5 -5.5,1.875 -13.875,11.875 -17.75,13.125 -2.48,0.768 -13.375,-2 -13.542,6.667 0.375,6.75 12.299,6.16 15.333,5.5 6.375,-1.125 16.867,-12.942 17.834,-13.542 5.5,2.75 12,6.75 21.5,5.375 9.25,-1.875 27.118,-32.773 27.778,-34.268 12.465,5.405 25.653,9.814 39.888,13.768 -1,6.834 -2,9.5 -2,9.5 -26,-2.333 -29.667,39.417 -2.166,42 C 13.296,51.976 16,17 -2.5,9.167 c 0,0 0.333,-2.5 2.5,-9.167 m 15.333,-11.167 c -41.479,-2.586 -75.265,-19.458 -101,-39 30.975,-20.026 74.823,-45.199 126,-38 35.58,5.005 67.054,21.278 90,39 -29.079,19.606 -68.815,40.881 -115,38 m 39.084,25.75 c 15.75,-3.5 21.125,19.75 8,25.125 2.25,-2.75 1.958,-5.625 1.5,-7.625 -4.25,-8.5 -17.875,-0.875 -11.25,8.25 -13.5,-5 -11.686,-22.764 1.75,-25.75 M -10.5,15.667 c 14.683,1.878 13.667,22.416 1.167,24.666 6.25,-6 0.25,-12 -2.886,-12.281 -3.614,-0.469 -10.406,3.156 -6.448,11.781 -13.5,-7.666 -6.166,-26 8.167,-24.166"
     style="fill:#ffffff;fill-opacity:1;fill-rule:evenodd;stroke:none"
     id="path34" /></g><g
   id="g36"
   transform="matrix(0.84117503,0,0,1.0598006,341.38096,451.49235)"
   style="fill:#ffffff"><path
     d="m 0,0 c -1.323,-16.574 -3.75,-45.875 0.875,-58 -7.5,-0.125 -12.871,2.772 -16.875,5 2.57,8.43 2.079,19.921 2,31 -4.625,-2 -8.593,-7.392 -12,-11 -4.5,3.375 -5.266,5.401 -9,7 -0.594,-7.141 -0.375,-17.625 -0.125,-22.125 -5.75,1.125 -10.083,2.667 -14.75,5.833 3.339,6.548 2.009,19.226 0.875,27.292 3.126,2.541 8.75,5.917 11.458,5.542 3.5,-1 3.667,-3.5 10,-8.334 C -17.542,-9.125 -18.375,0 0,0"
     style="fill:#ffffff;fill-opacity:1;fill-rule:evenodd;stroke:none"
     id="path38"
     inkscape:connector-curvature="0" /></g><g
   id="g40"
   transform="matrix(0.63069304,0,0,0.55064367,365.52091,434.40289)" /><g
   transform="matrix(-0.51020121,0,0,0.53027351,370.44196,435.88552)"
   id="g64"
   style="fill:#ffffff"><path
     inkscape:connector-curvature="0"
     id="path62"
     style="fill:#ffffff;fill-opacity:1;fill-rule:evenodd;stroke:none"
     d="m 0,0 c -1.323,-16.574 -3.75,-45.875 0.875,-58 -7.5,-0.125 -12.871,2.772 -16.875,5 2.57,8.43 2.079,19.921 2,31 -17.360526,-12.346851 -16.415879,-14.273292 -21.125,-26.125 -5.75,1.125 -10.083,2.667 -14.75,5.833 3.339,6.548 2.009,19.226 0.875,27.292 3.126,2.541 8.75,5.917 11.458,5.542 3.5,-1 -2.817997,-6.928191 3.515003,-11.762191 C -24.026997,-12.553191 -18.375,0 0,0"
     sodipodi:nodetypes="cccccccccc" /></g>
<g
   aria-label="RA"
   transform="matrix(1.5286209,0,0,-1.5402352,-216.13715,1131.3539)"
   style="font-style:normal;font-weight:normal;font-size:40px;line-height:1.25;font-family:sans-serif;letter-spacing:0px;word-spacing:0px;fill:#373535;fill-opacity:1;stroke:none"
   id="flowRoot40"><path
     d="m 298.4678,457.74471 c 0.6901,-0.30732 1.49308,-2.17611 1.49308,-2.87952 -0.35627,-1.79007 -3.08329,-2.62041 -4.02155,-2.27095 l -4.3743,1.78544 c -0.2782,1.27712 -0.49364,2.56116 0,3.92339 2.6906,-0.94257 5.40219,-0.66924 6.90277,-0.55836 z m -5.61691,5.08698 c -1.20993,2.50121 -1.12786,5.92091 0.23911,10.90579 -3.10482,-0.64821 -6.20964,-1.50686 -9.31447,-4.47759 1.75199,-6.35168 1.09605,-10.52144 -0.0485,-15.43576 -0.0524,-0.18424 -0.11519,-0.27573 -0.18374,-0.31581 -0.0182,-0.0836 -0.0784,-0.15536 0.008,-0.26877 l 12.77556,-6.17999 c 3.45283,-1.67026 8.72146,-1.37114 10.23244,-0.91171 2.90455,0.74838 1.79911,7.97604 0.75484,10.28381 -0.11033,0.33922 -1.75506,3.49759 -4.64665,3.99537 -0.38006,0.0654 -0.70523,-0.12105 -0.78064,0.12314 -0.0744,0.24082 -0.0369,0.53848 0.11596,0.55299 0.37088,0.0352 0.81284,0.35398 0.98096,0.53532 5.05177,4.4268 3.53985,11.40592 4.93654,18.28848 -2.9255,-0.1964 -7.39689,-1.46435 -10.13948,-3.11298 1.18639,-5.55288 1.9446,-9.69731 -0.0501,-13.43452 -2.28643,-1.51652 -2.42058,-1.12768 -4.8802,-0.54777 z"
     style="font-style:normal;font-variant:normal;font-weight:bold;font-stretch:normal;font-family:padmaa;-inkscape-font-specification:'padmaa Bold';fill:#ffffff;fill-opacity:1;stroke-width:0.72421372"
     id="path48"
     inkscape:connector-curvature="0"
     sodipodi:nodetypes="ccccccccccccsccsssccccc" /><path
     d="m 326.91865,472.65908 c -2.52389,-1.32169 -4.03908,-1.77178 -7.49458,0.18364 -2.1117,1.81191 -1.61871,5.03967 -0.66808,8.73163 -2.49308,0.0496 -5.86297,0.23216 -8.58487,-2.47764 5.78709,-17.41968 3.29149,-29.20584 3.92758,-34.80915 0.0696,-0.61357 -0.38343,-0.2078 -0.67799,-1.22771 4.11496,-2.38711 18.19412,-2.51822 19.35053,-0.73659 0.0107,0.90036 -0.13453,0.29222 -0.32836,1.19165 -1.41387,6.5605 0.69878,26.72968 4.38867,40.38769 -4.47824,2.00884 -6.46293,0.67651 -8.93708,10e-6 1.09947,-9.03099 0.008,-8.713 -0.97582,-11.24353 z m -6.10764,-7.08643 c 1.84262,-1.34928 3.81967,-1.18715 5.90896,0 -1.02365,-10.98517 -0.96722,-15.05191 -2.94727,-15.59002 -1.20553,1.04068 -3.06323,2.08367 -2.96169,15.59002 z"
     style="font-style:normal;font-variant:normal;font-weight:bold;font-stretch:normal;font-family:padmaa;-inkscape-font-specification:'padmaa Bold';fill:#ffffff;fill-opacity:1;stroke-width:0.9969961"
     id="path50"
     inkscape:connector-curvature="0"
     sodipodi:nodetypes="ccccsccsccccccc" /></g></g></g></g></svg>