<?xml version="1.0" encoding="UTF-8" standalone="no"?>
<svg
   id="a"
   viewBox="0 0 24427.648 9404.8008"
   version="1.1"
   width="24427.648"
   height="9404.8008"
   xmlns="http://www.w3.org/2000/svg"
   xmlns:svg="http://www.w3.org/2000/svg">
  <defs
     id="defs11" />
  <path
     d="m -437.12236,-7988.7101 h -136.54 c -2,0 -3.62,-1.63 -3.62,-3.62 v -50.54 c 0,-2 1.63,-3.62 3.62,-3.62 h 136.54 c 2,0 3.62,1.63 3.62,3.62 v 50.53 c 0,2 -1.63,3.62 -3.62,3.62 z m -136.54,-55.53 c -0.76,0 -1.38,0.62 -1.38,1.38 v 50.53 c 0,0.76 0.62,1.38 1.38,1.38 h 136.54 c 0.76,0 1.38,-0.62 1.38,-1.38 v -50.54 c 0,-0.76 -0.62,-1.38 -1.38,-1.38 h -136.54 z"
     id="path2"
     style="fill:#ffffff;fill-opacity:1;stroke:#000000;stroke-opacity:1" />
  <path
     d="m -434.62236,-8017.4201 v 10.71 c -1.84,0.35 -3.85,-0.27 -5.08,-1.87 -0.13,-0.16 -0.55,-0.42 -0.95,-0.42 -5.91,0 -11.46,4.26 -17.26,6.36 -1.14,0.42 -14.63,6.78 -19.47,0.01 -2.01,-2.71 -1.5,-8.79 -1.14,-11.53 0.32,-4.28 0.15,-8.9 -1.6,-12.62 -4.74,-10.05 -17.49,0.05 -23.79,3.76 -10.46,6.3 -25.46,19.98 -38.42,16.8 -6.14,-1.38 -7.68,-9.18 -11.33,-12.9 -1.62,-1.62 -3.6,-2.73 -5.87,-3.41 -4.56,-1.35 -9.85,-1.19 -14.99,-0.41 -0.59,0.06 -1.14,0.04 -1.64,-0.05 v -10.15 c 0.5,-0.09 1.05,-0.1 1.64,-0.05 8.59,1.33 19.19,2.92 25.01,10.56 1.97,2.58 3.08,5.47 4.11,7.84 1.06,2.43 2.2,4.05 4.26,4.72 4.87,1.45 10.01,-0.46 14.43,-2.73 12.47,-6.36 21.74,-17.49 34.62,-23.32 11.99,-4.86 18.73,3.26 21.76,13.11 2.07,-4.82 4.57,-9.25 6.02,-11.91 0.81,-1.39 2.95,-0.28 2.28,1.18 -2.15,5.07 -12.62,20.97 -6.81,26.39 5.68,5.3 22.36,-15.91 34.22,-10.07 z"
     id="path4"
     style="fill:#ffffff;fill-opacity:1;stroke:#000000;stroke-opacity:1" />
  <path
     d="m -432.33236,-8016.0101 -1.17,-0.78 c -12.02,-7.31 -29.5,15.22 -35.37,9.74 -5.87,-5.48 4.71,-21.55 6.88,-26.67 0.68,-1.47 -1.49,-2.59 -2.3,-1.19 -1.46,2.69 -3.99,7.17 -6.08,12.04 -3.06,-9.95 -9.87,-18.16 -21.98,-13.24 -13.02,5.89 -22.39,17.13 -34.98,23.56 -4.47,2.3 -9.66,4.22 -14.57,2.77 -2.09,-0.68 -3.24,-2.31 -4.31,-4.77 -1.04,-2.4 -2.17,-5.32 -4.16,-7.92 -5.88,-7.72 -16.59,-9.33 -25.27,-10.68 -8.03,-0.72 -7.94,11.12 0,10.36 5.2,-0.79 10.54,-0.95 15.15,0.41 2.29,0.69 4.29,1.81 5.92,3.45 3.69,3.76 5.25,11.63 11.46,13.03 13.09,3.2 28.24,-10.61 38.82,-16.98 6.37,-3.75 19.24,-13.96 24.04,-3.8 1.76,3.76 1.94,8.43 1.61,12.75 -0.36,2.77 -0.88,8.91 1.15,11.65 4.9,6.84 18.52,0.41 19.68,-0.02 9.16,-4.75 14.7,-9.7 18.39,-6 2.15,2.8 6.67,2.63 8.58,-0.36 1.62,-2.44 0.96,-5.74 -1.49,-7.36 z"
     id="path6"
     style="fill:#ffffff;fill-opacity:1;stroke:#000000;stroke-opacity:1" />
</svg>
