<?xml version="1.0" encoding="UTF-8" standalone="no"?>
<svg
   width="541.8667mm"
   height="304.80005mm"
   viewBox="0 0 541.8667 304.80005"
   version="1.1"
   id="svg8"
   xml:space="preserve"
   xmlns="http://www.w3.org/2000/svg"
   xmlns:svg="http://www.w3.org/2000/svg"
   xmlns:rdf="http://www.w3.org/1999/02/22-rdf-syntax-ns#"
   xmlns:cc="http://creativecommons.org/ns#"
   xmlns:dc="http://purl.org/dc/elements/1.1/"><defs
     id="defs2" /><metadata
     id="metadata5"><rdf:RDF><cc:Work
         rdf:about=""><dc:format>image/svg+xml</dc:format><dc:type
           rdf:resource="http://purl.org/dc/dcmitype/StillImage" /><dc:title /></cc:Work></rdf:RDF></metadata><g
     id="layer1"
     transform="translate(169.10576,-1097.4382)"><g
       id="layer2"
       style="display:inline;opacity:0.999"><rect
         style="opacity:1;fill:#ffffff;fill-opacity:1;stroke:#ffffff;stroke-width:25.8482;stroke-miterlimit:4;stroke-dasharray:none;stroke-opacity:1;paint-order:markers fill stroke"
         id="rect487"
         width="516.01849"
         height="278.95178"
         x="-156.18166"
         y="1110.3623" /></g><g
       id="layer3"><g
         id="g537"
         transform="matrix(3.3902169,0,0,2.3286626,360.19582,-1425.1016)"><g
           id="g513"
           transform="translate(-383.71719,546.86237)"><g
             id="g499"><g
               id="g495"
               transform="translate(-129.38124,173.43852)"><path
                 style="fill:#000001;fill-opacity:1;stroke:#000000;stroke-width:0.371507px;stroke-linecap:butt;stroke-linejoin:miter;stroke-opacity:1"
                 d="m 762.25769,510.53956 v 189.26897 l 26.31464,-26.30791 -0.56589,-138.31077 z"
                 id="path489"
                 transform="matrix(0.18871953,0,0,0.18871953,275.51166,321.69288)" /><path
                 style="fill:#000001;fill-opacity:1;stroke:#000000;stroke-width:0.29737px;stroke-linecap:butt;stroke-linejoin:miter;stroke-opacity:1"
                 d="m 731.41501,544.86639 v 111.06647 l 24.20401,-17.5368 V 562.4032 Z"
                 id="path491"
                 transform="matrix(0.18871953,0,0,0.18871953,275.51166,321.69288)" /><path
                 style="fill:#000000;fill-opacity:1;stroke:#000000;stroke-width:0.1;stroke-linecap:butt;stroke-linejoin:miter;stroke-miterlimit:4;stroke-dasharray:none;stroke-opacity:1"
                 d="m 399.52083,464.07916 2.64583,-5.02708 v -36.77709 c 1.74711,0.005 3.42453,-0.16669 5.02708,-0.52916 v 27.78125 l 4.7625,3.96875 0.26459,-34.39584 c 2.58055,-1.24225 4.83677,-2.66423 6.35,-4.49791 0.57902,-0.79018 0.18291,-1.41223 0.26459,-2.11666 -0.70556,-0.44097 -1.51843,-1.74389 -2.11667,-1.5875 -3.12063,4.89102 -7.84165,7.80588 -14.81667,7.93749 v -6.87917 c 0.12987,-0.51914 -0.0509,-0.67561 1.32292,-1.58749 -1e-5,0 1.80018,-0.60888 3.43958,-0.79376 -0.39187,-0.39333 -3.35094,-2.90628 -4.23334,-4.49791 l -2.91041,-4.49792 z"
                 id="path493" /></g><path
               style="fill:none;stroke:#000000;stroke-width:1.43766;stroke-linecap:butt;stroke-linejoin:miter;stroke-miterlimit:4;stroke-dasharray:none;stroke-opacity:1"
               d="m 310.81923,608.80625 c -0.49954,0.11113 -2.2398,-0.006 -3.34237,-0.007 -1.43791,-0.002 -1.69823,-1.96889 -2.16385,-4.40164 l -0.97444,10.30296 c -0.16374,-3.63124 -1.44672,-5.20672 -2.19247,-5.75753 h -1.70527 c -0.72058,-0.66279 -1.05957,-2.22383 -1.46166,-3.63635 -0.40398,1.40193 -0.59058,3.29968 -1.46165,3.63635 h -1.94887"
               id="path497" /></g><g
             id="g511"
             transform="matrix(-1,0,0,1,539.97862,0)"><g
               id="g507"
               transform="translate(-129.38124,173.43852)"><path
                 style="fill:#000001;fill-opacity:1;stroke:#000000;stroke-width:0.371507px;stroke-linecap:butt;stroke-linejoin:miter;stroke-opacity:1"
                 d="m 762.25769,510.53956 v 189.26897 l 26.31464,-26.30791 -0.56589,-138.31077 z"
                 id="path501"
                 transform="matrix(0.18871953,0,0,0.18871953,275.51166,321.69288)" /><path
                 style="fill:#000001;fill-opacity:1;stroke:#000000;stroke-width:0.29737px;stroke-linecap:butt;stroke-linejoin:miter;stroke-opacity:1"
                 d="m 731.41501,544.86639 v 111.06647 l 24.20401,-17.5368 V 562.4032 Z"
                 id="path503"
                 transform="matrix(0.18871953,0,0,0.18871953,275.51166,321.69288)" /><path
                 style="fill:#000000;fill-opacity:1;stroke:#000000;stroke-width:0.1;stroke-linecap:butt;stroke-linejoin:miter;stroke-miterlimit:4;stroke-dasharray:none;stroke-opacity:1"
                 d="m 399.52083,464.07916 2.64583,-5.02708 v -36.77709 c 1.74711,0.005 3.42453,-0.16669 5.02708,-0.52916 v 27.78125 l 4.7625,3.96875 0.26459,-34.39584 c 2.58055,-1.24225 4.83677,-2.66423 6.35,-4.49791 0.57902,-0.79018 0.18291,-1.41223 0.26459,-2.11666 -0.70556,-0.44097 -1.51843,-1.74389 -2.11667,-1.5875 -3.12063,4.89102 -7.84165,7.80588 -14.81667,7.93749 v -6.87917 c 0.12987,-0.51914 -0.0509,-0.67561 1.32292,-1.58749 -1e-5,0 1.80018,-0.60888 3.43958,-0.79376 -0.39187,-0.39333 -3.35094,-2.90628 -4.23334,-4.49791 l -2.91041,-4.49792 z"
                 id="path505" /></g><path
               style="fill:none;stroke:#000000;stroke-width:1.43766;stroke-linecap:butt;stroke-linejoin:miter;stroke-miterlimit:4;stroke-dasharray:none;stroke-opacity:1"
               d="m 310.81923,608.80625 c -0.49954,0.11113 -2.2398,-0.006 -3.34237,-0.007 -1.43791,-0.002 -1.69823,-1.96889 -2.16385,-4.40164 l -0.97444,10.30296 c -0.16374,-3.63124 -1.44672,-5.20672 -2.19247,-5.75753 h -1.70527 c -0.72058,-0.66279 -1.05957,-2.22383 -1.46166,-3.63635 -0.40398,1.40193 -0.59058,3.29968 -1.46165,3.63635 h -1.94887"
               id="path509" /></g></g><text
           xml:space="preserve"
           style="font-style:normal;font-variant:normal;font-weight:bold;font-stretch:normal;font-size:18.9822px;line-height:0.85;font-family:FreeMono;-inkscape-font-specification:'FreeMono Bold';letter-spacing:0px;word-spacing:0px;stroke-width:0.098865"
           x="-88.94709"
           y="1110.9167"
           id="text519"
           transform="scale(0.97059402,1.0302969)"><tspan
             x="-88.94709"
             y="1110.9167"
             style="font-style:normal;font-variant:normal;font-weight:bold;font-stretch:normal;font-family:FreeMono;-inkscape-font-specification:'FreeMono Bold';stroke-width:0.098865"
             id="tspan515">Tinnitus </tspan><tspan
             x="-88.94709"
             y="1127.0516"
             style="font-style:normal;font-variant:normal;font-weight:bold;font-stretch:normal;font-family:FreeMono;-inkscape-font-specification:'FreeMono Bold';stroke-width:0.098865"
             id="tspan517">  HiFi</tspan></text></g></g></g></svg>
