<?xml version="1.0" encoding="UTF-8" standalone="no"?>
<svg
   width="83.9935mm"
   height="83.99353mm"
   viewBox="0 0 83.9935 83.99353"
   version="1.1"
   id="svg8"
   inkscape:version="1.2.2 (b0a8486541, 2022-12-01)"
   sodipodi:docname="tinnitus.svg"
   xml:space="preserve"
   xmlns:inkscape="http://www.inkscape.org/namespaces/inkscape"
   xmlns:sodipodi="http://sodipodi.sourceforge.net/DTD/sodipodi-0.dtd"
   xmlns="http://www.w3.org/2000/svg"
   xmlns:svg="http://www.w3.org/2000/svg"
   xmlns:rdf="http://www.w3.org/1999/02/22-rdf-syntax-ns#"
   xmlns:cc="http://creativecommons.org/ns#"
   xmlns:dc="http://purl.org/dc/elements/1.1/"><defs
     id="defs2" /><sodipodi:namedview
     id="base"
     pagecolor="#ffffff"
     bordercolor="#666666"
     borderopacity="1.0"
     inkscape:pageopacity="0.0"
     inkscape:pageshadow="2"
     inkscape:zoom="0.09011255"
     inkscape:cx="1065.3344"
     inkscape:cy="3878.4831"
     inkscape:document-units="mm"
     inkscape:current-layer="layer3"
     inkscape:document-rotation="0"
     showgrid="true"
     inkscape:window-width="1920"
     inkscape:window-height="1043"
     inkscape:window-x="0"
     inkscape:window-y="0"
     inkscape:window-maximized="1"
     inkscape:showpageshadow="2"
     inkscape:pagecheckerboard="0"
     inkscape:deskcolor="#d1d1d1"><inkscape:grid
       type="xygrid"
       id="grid833" /></sodipodi:namedview><metadata
     id="metadata5"><rdf:RDF><cc:Work
         rdf:about=""><dc:format>image/svg+xml</dc:format><dc:type
           rdf:resource="http://purl.org/dc/dcmitype/StillImage" /><dc:title /></cc:Work></rdf:RDF></metadata><g
     inkscape:label="Capa 1"
     inkscape:groupmode="layer"
     id="layer1"
     transform="translate(-227.87589,-775.34501)"><g
       inkscape:groupmode="layer"
       id="layer2"
       inkscape:label="Layer 2"
       style="display:inline;opacity:0.999"><circle
         style="fill:#ffffff;stroke:none;stroke-width:0.247919"
         id="path293"
         cx="269.87265"
         cy="817.34174"
         r="41.996754"
         inkscape:export-filename="ys-c.svg"
         inkscape:export-xdpi="461.77145"
         inkscape:export-ydpi="461.77145" /></g><g
       inkscape:groupmode="layer"
       id="layer3"
       inkscape:label="Layer 3"><g
         id="g1108"
         inkscape:export-filename="/home/nasciiboy/tinnitus_005.png"
         inkscape:export-xdpi="317.29846"
         inkscape:export-ydpi="317.29846"
         transform="translate(0,208.35713)"
         style="fill:#000000"><g
           id="g1094"
           style="fill:#000000"><g
             id="g1090"
             inkscape:export-xdpi="98.874832"
             inkscape:export-ydpi="98.874832"
             inkscape:export-filename="/home/nasciiboy/rect1634.png"
             transform="translate(-129.38124,173.43852)"
             style="fill:#000000"><path
               style="fill:#000000;fill-opacity:1;stroke:#000000;stroke-width:0.371507px;stroke-linecap:butt;stroke-linejoin:miter;stroke-opacity:1"
               d="m 762.25769,510.53956 v 189.26897 l 26.31464,-26.30791 -0.56589,-138.31077 z"
               id="path1084"
               sodipodi:nodetypes="ccccc"
               transform="matrix(0.18871953,0,0,0.18871953,275.51166,321.69288)" /><path
               style="fill:#000000;fill-opacity:1;stroke:#000000;stroke-width:0.29737px;stroke-linecap:butt;stroke-linejoin:miter;stroke-opacity:1"
               d="m 731.41501,544.86639 v 111.06647 l 24.20401,-17.5368 V 562.4032 Z"
               id="path1086"
               sodipodi:nodetypes="ccccc"
               transform="matrix(0.18871953,0,0,0.18871953,275.51166,321.69288)" /><path
               style="fill:#000000;fill-opacity:1;stroke:#000000;stroke-width:0.1;stroke-linecap:butt;stroke-linejoin:miter;stroke-miterlimit:4;stroke-dasharray:none;stroke-opacity:1"
               d="m 399.52083,464.07916 2.64583,-5.02708 v -36.77709 c 1.74711,0.005 3.42453,-0.16669 5.02708,-0.52916 v 27.78125 l 4.7625,3.96875 0.26459,-34.39584 c 2.58055,-1.24225 4.83677,-2.66423 6.35,-4.49791 0.57902,-0.79018 0.18291,-1.41223 0.26459,-2.11666 -0.70556,-0.44097 -1.51843,-1.74389 -2.11667,-1.5875 -3.12063,4.89102 -7.84165,7.80588 -14.81667,7.93749 v -6.87917 c 0.12987,-0.51914 -0.0509,-0.67561 1.32292,-1.58749 -1e-5,0 1.80018,-0.60888 3.43958,-0.79376 -0.39187,-0.39333 -3.35094,-2.90628 -4.23334,-4.49791 l -2.91041,-4.49792 z"
               id="path1088"
               sodipodi:nodetypes="ccccccccccccccccc" /></g><path
             style="fill:#000000;stroke:#000000;stroke-width:1.43766;stroke-linecap:butt;stroke-linejoin:miter;stroke-miterlimit:4;stroke-dasharray:none;stroke-opacity:1"
             d="m 310.81923,608.80625 c -0.49954,0.11113 -2.2398,-0.006 -3.34237,-0.007 -1.43791,-0.002 -1.69823,-1.96889 -2.16385,-4.40164 l -0.97444,10.30296 c -0.16374,-3.63124 -1.44672,-5.20672 -2.19247,-5.75753 h -1.70527 c -0.72058,-0.66279 -1.05957,-2.22383 -1.46166,-3.63635 -0.40398,1.40193 -0.59058,3.29968 -1.46165,3.63635 h -1.94887"
             id="path1092"
             sodipodi:nodetypes="csccccccc"
             inkscape:export-filename="/home/nasciiboy/rect1421.png"
             inkscape:export-xdpi="88.957047"
             inkscape:export-ydpi="88.957047" /></g><g
           id="g1106"
           transform="matrix(-1,0,0,1,539.97862,0)"
           style="fill:#000000"><g
             id="g1102"
             inkscape:export-xdpi="98.874832"
             inkscape:export-ydpi="98.874832"
             inkscape:export-filename="/home/nasciiboy/rect1634.png"
             transform="translate(-129.38124,173.43852)"
             style="fill:#000000"><path
               style="fill:#000000;fill-opacity:1;stroke:#000000;stroke-width:0.371507px;stroke-linecap:butt;stroke-linejoin:miter;stroke-opacity:1"
               d="m 762.25769,510.53956 v 189.26897 l 26.31464,-26.30791 -0.56589,-138.31077 z"
               id="path1096"
               sodipodi:nodetypes="ccccc"
               transform="matrix(0.18871953,0,0,0.18871953,275.51166,321.69288)" /><path
               style="fill:#000000;fill-opacity:1;stroke:#000000;stroke-width:0.29737px;stroke-linecap:butt;stroke-linejoin:miter;stroke-opacity:1"
               d="m 731.41501,544.86639 v 111.06647 l 24.20401,-17.5368 V 562.4032 Z"
               id="path1098"
               sodipodi:nodetypes="ccccc"
               transform="matrix(0.18871953,0,0,0.18871953,275.51166,321.69288)" /><path
               style="fill:#000000;fill-opacity:1;stroke:#000000;stroke-width:0.1;stroke-linecap:butt;stroke-linejoin:miter;stroke-miterlimit:4;stroke-dasharray:none;stroke-opacity:1"
               d="m 399.52083,464.07916 2.64583,-5.02708 v -36.77709 c 1.74711,0.005 3.42453,-0.16669 5.02708,-0.52916 v 27.78125 l 4.7625,3.96875 0.26459,-34.39584 c 2.58055,-1.24225 4.83677,-2.66423 6.35,-4.49791 0.57902,-0.79018 0.18291,-1.41223 0.26459,-2.11666 -0.70556,-0.44097 -1.51843,-1.74389 -2.11667,-1.5875 -3.12063,4.89102 -7.84165,7.80588 -14.81667,7.93749 v -6.87917 c 0.12987,-0.51914 -0.0509,-0.67561 1.32292,-1.58749 -1e-5,0 1.80018,-0.60888 3.43958,-0.79376 -0.39187,-0.39333 -3.35094,-2.90628 -4.23334,-4.49791 l -2.91041,-4.49792 z"
               id="path1100"
               sodipodi:nodetypes="ccccccccccccccccc" /></g><path
             style="fill:#000000;stroke:#000000;stroke-width:1.43766;stroke-linecap:butt;stroke-linejoin:miter;stroke-miterlimit:4;stroke-dasharray:none;stroke-opacity:1"
             d="m 310.81923,608.80625 c -0.49954,0.11113 -2.2398,-0.006 -3.34237,-0.007 -1.43791,-0.002 -1.69823,-1.96889 -2.16385,-4.40164 l -0.97444,10.30296 c -0.16374,-3.63124 -1.44672,-5.20672 -2.19247,-5.75753 h -1.70527 c -0.72058,-0.66279 -1.05957,-2.22383 -1.46166,-3.63635 -0.40398,1.40193 -0.59058,3.29968 -1.46165,3.63635 h -1.94887"
             id="path1104"
             sodipodi:nodetypes="csccccccc"
             inkscape:export-filename="/home/nasciiboy/rect1421.png"
             inkscape:export-xdpi="88.957047"
             inkscape:export-ydpi="88.957047" /></g></g></g></g></svg>
